<svg xmlns="http://www.w3.org/2000/svg" xmlns:xlink="http://www.w3.org/1999/xlink" width="500" zoomAndPan="magnify" viewBox="0 0 375 374.999991" height="500" preserveAspectRatio="xMidYMid meet" version="1.0"><defs><clipPath id="8432e36ac2"><path d="M 25.945312 25.945312 L 349.195312 25.945312 L 349.195312 349.195312 L 25.945312 349.195312 Z M 25.945312 25.945312 " clip-rule="nonzero"/></clipPath></defs><g clip-path="url(#8432e36ac2)"><path fill="#000000" d="M 120.992188 25.945312 C 68.820312 25.945312 25.945312 68.761719 25.945312 120.992188 L 25.945312 254.148438 C 25.945312 306.320312 68.761719 349.195312 120.992188 349.195312 L 254.148438 349.195312 C 306.320312 349.195312 349.195312 306.378906 349.195312 254.148438 L 349.195312 120.992188 C 349.195312 68.820312 306.378906 25.945312 254.148438 25.945312 Z M 120.992188 55.332031 L 254.148438 55.332031 C 290.480469 55.332031 319.808594 84.660156 319.808594 120.992188 L 319.808594 254.148438 C 319.808594 290.480469 290.480469 319.808594 254.148438 319.808594 L 120.992188 319.808594 C 84.660156 319.808594 55.332031 290.480469 55.332031 254.148438 L 55.332031 120.992188 C 55.332031 84.660156 84.660156 55.332031 120.992188 55.332031 Z M 274.351562 87.472656 C 266.949219 87.472656 261.035156 93.386719 261.035156 100.789062 C 261.035156 108.195312 266.949219 114.105469 274.351562 114.105469 C 281.757812 114.105469 287.667969 108.195312 287.667969 100.789062 C 287.667969 93.386719 281.757812 87.472656 274.351562 87.472656 Z M 187.570312 99.410156 C 139.070312 99.410156 99.410156 139.070312 99.410156 187.570312 C 99.410156 236.070312 139.070312 275.730469 187.570312 275.730469 C 236.070312 275.730469 275.730469 236.070312 275.730469 187.570312 C 275.730469 139.070312 236.070312 99.410156 187.570312 99.410156 Z M 187.570312 128.796875 C 220.230469 128.796875 246.34375 154.914062 246.34375 187.570312 C 246.34375 220.230469 220.230469 246.34375 187.570312 246.34375 C 154.914062 246.34375 128.796875 220.230469 128.796875 187.570312 C 128.796875 154.914062 154.914062 128.796875 187.570312 128.796875 Z M 187.570312 128.796875 " fill-opacity="1" fill-rule="nonzero"/></g></svg>