<svg xmlns="http://www.w3.org/2000/svg" xmlns:xlink="http://www.w3.org/1999/xlink" width="500" zoomAndPan="magnify" viewBox="0 0 375 374.999991" height="500" preserveAspectRatio="xMidYMid meet" version="1.0"><defs><clipPath id="5110260310"><path d="M 25.394531 25.394531 L 349.394531 25.394531 L 349.394531 349.394531 L 25.394531 349.394531 Z M 25.394531 25.394531 " clip-rule="nonzero"/></clipPath></defs><g clip-path="url(#5110260310)"><path fill="#0277b5" d="M 322.324219 25.394531 L 52.621094 25.394531 C 37.710938 25.394531 25.71875 37.550781 25.71875 52.296875 L 25.71875 322.488281 C 25.71875 337.398438 37.875 349.394531 52.621094 349.394531 L 322.164062 349.394531 C 337.074219 349.394531 349.070312 337.238281 349.070312 322.488281 L 349.070312 52.296875 C 349.230469 37.550781 337.238281 25.394531 322.324219 25.394531 Z M 121.507812 292.664062 L 73.695312 292.664062 L 73.695312 149.0625 L 121.507812 149.0625 Z M 97.519531 131.71875 C 82.445312 131.71875 70.289062 119.5625 70.289062 104.488281 C 70.289062 89.414062 82.445312 77.257812 97.519531 77.257812 C 112.59375 77.257812 124.75 89.414062 124.75 104.488281 C 124.75 119.5625 112.59375 131.71875 97.519531 131.71875 Z M 301.417969 292.664062 L 253.441406 292.664062 L 252.308594 207.410156 C 252.308594 207.410156 253.441406 184.71875 228.644531 184.882812 C 203.84375 185.042969 200.441406 207.410156 200.441406 207.410156 L 200.441406 292.664062 L 152.140625 292.664062 L 152.140625 149.0625 L 198.496094 149.0625 L 198.496094 168.835938 C 198.496094 168.835938 200.441406 162.351562 211.136719 154.734375 C 221.835938 147.117188 239.503906 145.496094 247.121094 145.820312 C 254.738281 146.144531 265.109375 144.847656 282.453125 156.839844 C 301.09375 169.644531 301.578125 203.195312 301.578125 203.195312 Z M 301.417969 292.664062 " fill-opacity="1" fill-rule="nonzero"/></g></svg>