<svg xmlns="http://www.w3.org/2000/svg" xmlns:xlink="http://www.w3.org/1999/xlink" width="500" zoomAndPan="magnify" viewBox="0 0 375 374.999991" height="500" preserveAspectRatio="xMidYMid meet" version="1.0"><defs><g/></defs><rect x="-37.5" width="450" fill="#ffffff" y="-37.499999" height="449.999989" fill-opacity="1"/><rect x="-37.5" width="450" fill="#ffffff" y="-37.499999" height="449.999989" fill-opacity="1"/><g fill="#3b3937" fill-opacity="1"><g transform="translate(176.410085, 273.355588)"><g><path d="M 6.359375 0 L 6.359375 -1.8125 L 10.1875 -1.8125 C 14.425781 -1.8125 17.726562 -2.78125 20.09375 -4.71875 C 22.457031 -6.664062 23.640625 -9.941406 23.640625 -14.546875 L 23.640625 -115.796875 C 23.640625 -120.160156 22.457031 -123.28125 20.09375 -125.15625 C 17.726562 -127.039062 14.425781 -127.984375 10.1875 -127.984375 L 6.359375 -127.984375 L 6.359375 -129.796875 L 62 -129.796875 L 62 -127.984375 L 58.171875 -127.984375 C 53.929688 -127.984375 50.660156 -127.015625 48.359375 -125.078125 C 46.054688 -123.140625 44.90625 -119.925781 44.90625 -115.4375 L 44.90625 -1.8125 L 76.53125 -1.8125 C 83.195312 -1.8125 88.53125 -2.78125 92.53125 -4.71875 C 96.53125 -6.664062 99.53125 -9.847656 101.53125 -14.265625 C 103.53125 -18.691406 104.773438 -24.785156 105.265625 -32.546875 L 105.8125 -39.453125 L 107.625 -39.453125 L 106.34375 0 Z M 6.359375 0 "/></g></g></g><g fill="#3b3937" fill-opacity="1"><g transform="translate(28.258838, 216.929235)"><g><path d="M 6.359375 0 L 6.359375 -1.8125 L 15.265625 -1.8125 C 19.390625 -1.8125 22.632812 -2.78125 25 -4.71875 C 27.363281 -6.664062 28.546875 -9.878906 28.546875 -14.359375 L 28.546875 -115.984375 C 28.546875 -120.222656 27.363281 -123.28125 25 -125.15625 C 22.632812 -127.039062 19.390625 -127.984375 15.265625 -127.984375 L 6.359375 -127.984375 L 6.359375 -129.796875 L 46.90625 -129.796875 L 90.71875 -23.265625 L 128.34375 -129.796875 L 164.890625 -129.796875 L 164.890625 -127.984375 L 161.078125 -127.984375 C 156.710938 -127.984375 153.378906 -127.015625 151.078125 -125.078125 C 148.773438 -123.140625 147.625 -119.867188 147.625 -115.265625 L 147.625 -14.546875 C 147.625 -9.941406 148.773438 -6.664062 151.078125 -4.71875 C 153.378906 -2.78125 156.710938 -1.8125 161.078125 -1.8125 L 164.890625 -1.8125 L 164.890625 0 L 113.8125 0 L 113.8125 -1.8125 L 114.71875 -1.8125 C 118.59375 -1.8125 121.648438 -2.75 123.890625 -4.625 C 126.128906 -6.507812 127.25 -9.695312 127.25 -14.1875 L 127.25 -121.078125 L 84.71875 0 L 79.078125 0 L 30.359375 -119.078125 L 30.359375 -14.546875 C 30.359375 -9.941406 31.566406 -6.664062 33.984375 -4.71875 C 36.410156 -2.78125 40.050781 -1.8125 44.90625 -1.8125 L 49.265625 -1.8125 L 49.265625 0 Z M 6.359375 0 "/></g></g></g><g fill="#a6a6a6" fill-opacity="1"><g transform="translate(20.855921, 254.041169)"><g><path d="M 2.480469 0.8125 C 2.457031 0.835938 2.40625 0.835938 2.359375 0.835938 C 2.308594 0.835938 2.257812 0.835938 2.210938 0.859375 C 2.234375 0.785156 2.285156 0.761719 2.332031 0.761719 C 2.382812 0.761719 2.433594 0.761719 2.457031 0.761719 C 2.480469 0.761719 2.503906 0.785156 2.53125 0.8125 C 2.503906 0.835938 2.480469 0.835938 2.433594 0.835938 L 2.503906 0.984375 C 2.53125 0.957031 2.554688 0.933594 2.578125 0.882812 C 2.605469 0.835938 2.628906 0.8125 2.675781 0.8125 L 2.726562 0.8125 L 2.726562 0.785156 C 2.726562 0.710938 2.75 0.6875 2.800781 0.6875 C 2.847656 0.6875 2.898438 0.664062 2.949219 0.636719 C 2.847656 0.636719 2.800781 0.636719 2.800781 0.613281 C 2.847656 0.566406 2.949219 0.515625 3.09375 0.464844 C 3.242188 0.417969 3.363281 0.394531 3.464844 0.394531 L 3.511719 0.394531 C 3.585938 0.394531 3.660156 0.394531 3.734375 0.367188 C 3.808594 0.34375 3.855469 0.320312 3.90625 0.292969 C 3.929688 0.367188 3.953125 0.394531 3.980469 0.394531 C 3.980469 0.367188 3.953125 0.320312 3.929688 0.246094 C 3.953125 0.246094 4.003906 0.246094 4.101562 0.222656 C 4.199219 0.195312 4.273438 0.171875 4.347656 0.148438 C 4.421875 0.121094 4.496094 0.0976562 4.570312 0.0742188 C 4.640625 0.0507812 4.667969 0.0234375 4.667969 0 L 4.714844 0.0507812 C 4.742188 0.0234375 4.765625 0 4.8125 -0.0234375 C 4.863281 -0.0507812 4.886719 -0.0742188 4.914062 -0.0976562 C 4.9375 -0.0976562 4.9375 -0.0742188 4.9375 -0.0507812 C 4.914062 -0.0234375 4.886719 0 4.863281 0.0234375 C 4.839844 0.0507812 4.8125 0.0742188 4.789062 0.0976562 L 5.085938 0.0234375 C 5.058594 0 5.035156 -0.0234375 5.011719 -0.0234375 C 5.058594 -0.0507812 5.132812 -0.0976562 5.257812 -0.148438 C 5.378906 -0.195312 5.453125 -0.222656 5.476562 -0.222656 C 5.476562 -0.195312 5.476562 -0.171875 5.476562 -0.148438 C 5.476562 -0.121094 5.476562 -0.0976562 5.476562 -0.0742188 L 5.550781 -0.0742188 C 5.550781 -0.0507812 5.503906 -0.0234375 5.429688 0 C 5.453125 0 5.453125 0 5.453125 0 C 5.453125 0 5.453125 0 5.476562 0 C 5.550781 -0.0234375 5.699219 -0.0976562 5.917969 -0.195312 C 6.140625 -0.292969 6.363281 -0.394531 6.582031 -0.492188 L 6.582031 -0.394531 C 6.605469 -0.417969 6.679688 -0.441406 6.777344 -0.464844 L 6.777344 -0.441406 C 6.828125 -0.464844 6.878906 -0.492188 6.925781 -0.515625 C 6.976562 -0.539062 7 -0.566406 7.023438 -0.589844 C 7.050781 -0.589844 7.050781 -0.589844 7.050781 -0.566406 C 7.023438 -0.539062 7 -0.515625 6.976562 -0.492188 C 7.050781 -0.492188 7.125 -0.515625 7.195312 -0.566406 C 7.269531 -0.613281 7.34375 -0.664062 7.417969 -0.6875 C 7.394531 -0.710938 7.367188 -0.710938 7.367188 -0.710938 C 7.367188 -0.710938 7.34375 -0.710938 7.320312 -0.738281 C 7.34375 -0.761719 7.367188 -0.761719 7.394531 -0.761719 C 7.417969 -0.761719 7.441406 -0.761719 7.46875 -0.785156 C 7.441406 -0.8125 7.417969 -0.8125 7.417969 -0.785156 C 7.417969 -0.761719 7.417969 -0.761719 7.417969 -0.785156 C 7.441406 -0.785156 7.46875 -0.785156 7.492188 -0.785156 C 7.515625 -0.785156 7.539062 -0.785156 7.566406 -0.785156 C 7.589844 -0.785156 7.640625 -0.8125 7.710938 -0.835938 C 7.6875 -0.835938 7.6875 -0.835938 7.6875 -0.859375 C 7.710938 -0.859375 7.738281 -0.859375 7.761719 -0.882812 C 7.785156 -0.882812 7.785156 -0.882812 7.785156 -0.882812 C 7.785156 -0.882812 7.785156 -0.882812 7.8125 -0.882812 C 7.785156 -0.910156 7.761719 -0.910156 7.738281 -0.910156 C 7.761719 -0.933594 7.785156 -0.957031 7.8125 -0.984375 C 7.835938 -0.957031 7.835938 -0.933594 7.835938 -0.910156 C 7.835938 -0.882812 7.835938 -0.859375 7.859375 -0.835938 C 7.882812 -0.859375 7.910156 -0.882812 7.933594 -0.910156 C 7.957031 -0.933594 7.984375 -0.957031 8.007812 -0.984375 C 7.984375 -0.984375 7.957031 -0.984375 7.933594 -0.957031 C 7.933594 -0.984375 7.933594 -1.007812 7.957031 -1.03125 L 7.984375 -1.03125 C 8.128906 -1.03125 8.253906 -1.105469 8.375 -1.253906 C 8.5 -1.398438 8.746094 -1.546875 9.113281 -1.71875 C 9.113281 -1.695312 9.113281 -1.671875 9.136719 -1.644531 L 9.503906 -1.867188 C 9.503906 -1.890625 9.480469 -1.914062 9.457031 -1.941406 C 9.628906 -1.941406 9.800781 -2.039062 9.972656 -2.234375 C 10.144531 -2.433594 10.316406 -2.578125 10.488281 -2.703125 C 10.488281 -2.675781 10.488281 -2.652344 10.511719 -2.628906 C 10.539062 -2.652344 10.5625 -2.675781 10.609375 -2.703125 C 10.660156 -2.726562 10.683594 -2.777344 10.683594 -2.847656 L 10.683594 -2.921875 C 10.734375 -2.898438 10.78125 -2.875 10.808594 -2.847656 C 10.90625 -2.921875 10.980469 -2.972656 11.054688 -2.996094 C 11.027344 -2.996094 11.027344 -2.996094 11.027344 -3.019531 C 10.953125 -2.996094 10.90625 -2.972656 10.855469 -2.972656 C 10.882812 -3.046875 10.90625 -3.121094 10.929688 -3.191406 C 10.953125 -3.265625 10.980469 -3.339844 11.003906 -3.414062 L 11.152344 -3.121094 L 11.175781 -3.144531 C 11.175781 -3.09375 11.175781 -3.09375 11.175781 -3.144531 C 11.175781 -3.191406 11.199219 -3.265625 11.273438 -3.363281 C 11.347656 -3.464844 11.445312 -3.609375 11.59375 -3.78125 C 11.742188 -3.953125 11.960938 -4.152344 12.257812 -4.371094 C 12.230469 -4.398438 12.207031 -4.398438 12.183594 -4.398438 C 12.207031 -4.46875 12.257812 -4.519531 12.304688 -4.542969 C 12.355469 -4.570312 12.378906 -4.667969 12.378906 -4.839844 C 12.378906 -4.914062 12.378906 -4.960938 12.355469 -4.984375 C 12.429688 -5.011719 12.476562 -5.035156 12.503906 -5.058594 L 12.402344 -5.207031 C 12.429688 -5.183594 12.453125 -5.183594 12.476562 -5.183594 C 12.503906 -5.183594 12.527344 -5.207031 12.527344 -5.230469 L 12.527344 -5.355469 C 12.527344 -5.429688 12.550781 -5.550781 12.625 -5.722656 L 12.550781 -5.773438 C 12.601562 -5.796875 12.625 -5.820312 12.648438 -5.847656 C 12.675781 -5.871094 12.699219 -5.871094 12.722656 -5.871094 C 12.746094 -5.871094 12.746094 -5.871094 12.746094 -5.847656 C 12.746094 -5.820312 12.746094 -5.820312 12.773438 -5.820312 C 12.796875 -5.820312 12.820312 -5.847656 12.847656 -5.871094 C 12.820312 -5.847656 12.820312 -5.847656 12.871094 -5.871094 C 12.917969 -5.894531 12.992188 -5.917969 13.066406 -5.96875 C 13.140625 -6.019531 13.214844 -6.089844 13.289062 -6.164062 C 13.363281 -6.238281 13.386719 -6.335938 13.386719 -6.460938 C 13.410156 -6.484375 13.410156 -6.484375 13.410156 -6.460938 L 13.410156 -6.363281 C 13.4375 -6.386719 13.460938 -6.433594 13.484375 -6.507812 C 13.507812 -6.582031 13.535156 -6.65625 13.558594 -6.753906 C 13.582031 -6.851562 13.609375 -6.925781 13.632812 -7 C 13.65625 -7.074219 13.65625 -7.125 13.65625 -7.148438 C 13.65625 -7.171875 13.65625 -7.195312 13.632812 -7.222656 C 13.730469 -7.367188 13.804688 -7.539062 13.828125 -7.738281 C 13.851562 -7.933594 13.878906 -8.128906 13.878906 -8.328125 L 13.878906 -8.792969 C 13.902344 -8.988281 13.851562 -9.285156 13.753906 -9.703125 C 13.65625 -10.121094 13.484375 -10.488281 13.265625 -10.808594 C 13.191406 -10.882812 13.09375 -11.003906 12.96875 -11.175781 C 12.847656 -11.347656 12.699219 -11.519531 12.527344 -11.691406 C 12.355469 -11.863281 12.160156 -12.011719 11.914062 -12.132812 C 11.667969 -12.257812 11.398438 -12.304688 11.101562 -12.304688 L 11.003906 -12.304688 C 10.710938 -12.503906 10.390625 -12.625 10.023438 -12.675781 C 9.652344 -12.722656 9.285156 -12.746094 8.917969 -12.746094 C 8.546875 -12.746094 8.179688 -12.773438 7.8125 -12.796875 C 7.441406 -12.820312 7.097656 -12.917969 6.777344 -13.09375 C 6.804688 -13.117188 6.804688 -13.140625 6.804688 -13.164062 C 6.804688 -13.191406 6.804688 -13.214844 6.828125 -13.238281 L 6.804688 -13.289062 L 6.878906 -13.363281 L 6.804688 -13.535156 C 6.777344 -13.582031 6.730469 -13.65625 6.65625 -13.78125 L 6.679688 -13.804688 L 6.828125 -13.730469 C 6.65625 -13.878906 6.507812 -14 6.363281 -14.097656 C 6.214844 -14.195312 6.066406 -14.296875 5.894531 -14.367188 L 5.894531 -14.320312 C 5.894531 -14.296875 5.894531 -14.296875 5.871094 -14.296875 C 5.820312 -14.296875 5.773438 -14.296875 5.722656 -14.320312 C 5.675781 -14.34375 5.625 -14.34375 5.574219 -14.34375 C 5.453125 -14.34375 5.328125 -14.296875 5.207031 -14.222656 C 5.230469 -14.195312 5.230469 -14.171875 5.230469 -14.125 C 5.207031 -14.125 5.15625 -14.097656 5.085938 -14.050781 C 5.011719 -14 4.960938 -13.953125 4.960938 -13.902344 C 4.9375 -13.828125 4.863281 -13.78125 4.714844 -13.730469 C 4.570312 -13.679688 4.496094 -13.582031 4.496094 -13.4375 C 4.519531 -13.460938 4.519531 -13.410156 4.496094 -13.3125 C 4.46875 -13.214844 4.445312 -13.117188 4.398438 -12.992188 C 4.347656 -12.871094 4.273438 -12.746094 4.199219 -12.625 C 4.125 -12.503906 4.027344 -12.429688 3.929688 -12.402344 C 3.980469 -12.402344 3.832031 -12.378906 3.464844 -12.304688 C 3.09375 -12.230469 2.675781 -12.160156 2.210938 -12.058594 C 1.742188 -11.960938 1.328125 -11.863281 0.933594 -11.765625 C 0.539062 -11.667969 0.34375 -11.59375 0.34375 -11.542969 C 0.34375 -11.519531 0.394531 -11.445312 0.492188 -11.324219 C 0.589844 -11.199219 0.6875 -11.152344 0.8125 -11.152344 C 0.984375 -11.152344 1.128906 -11.175781 1.277344 -11.25 C 1.425781 -11.324219 1.570312 -11.347656 1.742188 -11.347656 L 1.867188 -11.347656 C 2.085938 -11.347656 2.308594 -11.371094 2.554688 -11.421875 C 2.800781 -11.46875 3.019531 -11.519531 3.242188 -11.59375 L 3.046875 -11.59375 L 3.292969 -11.644531 C 3.390625 -11.667969 3.464844 -11.691406 3.488281 -11.714844 L 3.511719 -11.714844 C 3.535156 -11.714844 3.5625 -11.714844 3.585938 -11.691406 C 3.609375 -11.691406 3.636719 -11.714844 3.660156 -11.742188 C 3.636719 -11.644531 3.609375 -11.570312 3.609375 -11.542969 L 3.636719 -11.519531 C 3.636719 -11.542969 3.636719 -11.59375 3.660156 -11.644531 C 3.683594 -11.691406 3.707031 -11.714844 3.734375 -11.714844 C 3.757812 -11.714844 3.78125 -11.691406 3.808594 -11.667969 C 3.636719 -10.980469 3.390625 -10.242188 3.09375 -9.457031 C 2.800781 -8.671875 2.480469 -7.933594 2.160156 -7.246094 C 1.941406 -6.632812 1.695312 -6.019531 1.449219 -5.429688 C 1.203125 -4.839844 1.007812 -4.296875 0.882812 -3.832031 C 0.761719 -3.464844 0.636719 -3.121094 0.515625 -2.800781 C 0.394531 -2.480469 0.292969 -2.160156 0.195312 -1.816406 C 0.0507812 -1.328125 -0.0742188 -0.910156 -0.195312 -0.589844 C -0.320312 -0.269531 -0.515625 0.0507812 -0.785156 0.367188 L -0.785156 0.441406 C -0.785156 0.417969 -0.8125 0.441406 -0.835938 0.492188 C -0.859375 0.539062 -0.882812 0.636719 -0.933594 0.761719 C -0.984375 0.882812 -1.007812 1.007812 -1.03125 1.15625 C -1.054688 1.300781 -1.082031 1.425781 -1.082031 1.546875 C -1.082031 1.570312 -1.082031 1.597656 -1.082031 1.597656 C -1.082031 1.597656 -1.082031 1.621094 -1.082031 1.644531 C -1.082031 1.671875 -1.105469 1.695312 -1.128906 1.71875 C -1.15625 1.742188 -1.179688 1.769531 -1.179688 1.792969 C -1.15625 1.867188 -1.105469 1.914062 -1.03125 1.941406 C -0.957031 1.964844 -0.835938 2.0625 -0.664062 2.210938 C -0.539062 2.308594 -0.417969 2.359375 -0.269531 2.382812 C -0.121094 2.40625 0.0234375 2.40625 0.148438 2.40625 L 0.320312 2.40625 C 0.394531 2.40625 0.441406 2.40625 0.464844 2.433594 C 0.492188 2.40625 0.515625 2.382812 0.539062 2.332031 C 0.566406 2.285156 0.589844 2.257812 0.613281 2.234375 C 0.738281 2.136719 0.835938 2.0625 0.910156 2.015625 C 0.984375 1.964844 1.03125 1.914062 1.082031 1.867188 C 1.128906 1.816406 1.179688 1.769531 1.226562 1.71875 C 1.277344 1.671875 1.328125 1.597656 1.375 1.523438 C 1.398438 1.523438 1.425781 1.523438 1.425781 1.523438 C 1.425781 1.523438 1.425781 1.523438 1.449219 1.523438 L 1.570312 1.523438 C 1.621094 1.523438 1.695312 1.570312 1.769531 1.644531 C 1.84375 1.570312 1.867188 1.523438 1.867188 1.472656 C 1.914062 1.351562 1.988281 1.300781 2.085938 1.300781 C 2.1875 1.300781 2.234375 1.277344 2.234375 1.203125 Z M 3.191406 -0.761719 L 3.265625 -0.835938 L 3.242188 -0.859375 C 3.265625 -0.882812 3.292969 -0.910156 3.316406 -0.933594 L 3.316406 -0.859375 C 3.363281 -0.933594 3.390625 -1.007812 3.390625 -1.082031 C 3.390625 -1.15625 3.390625 -1.226562 3.390625 -1.328125 C 3.414062 -1.300781 3.414062 -1.277344 3.414062 -1.253906 C 3.4375 -1.375 3.464844 -1.472656 3.511719 -1.570312 C 3.5625 -1.671875 3.585938 -1.792969 3.585938 -1.914062 C 3.609375 -1.941406 3.636719 -1.988281 3.660156 -2.085938 C 3.683594 -2.1875 3.707031 -2.285156 3.734375 -2.40625 L 3.832031 -2.75 C 3.855469 -2.875 3.882812 -2.972656 3.90625 -3.046875 C 3.90625 -3.070312 3.882812 -3.070312 3.855469 -3.070312 C 3.882812 -3.09375 3.90625 -3.121094 3.929688 -3.144531 C 3.90625 -3.167969 3.882812 -3.167969 3.855469 -3.167969 C 3.929688 -3.242188 4.027344 -3.414062 4.152344 -3.683594 C 4.273438 -3.953125 4.371094 -4.25 4.445312 -4.570312 L 4.46875 -4.691406 C 4.496094 -4.765625 4.519531 -4.863281 4.542969 -4.960938 C 4.570312 -5.058594 4.617188 -5.15625 4.667969 -5.257812 C 4.714844 -5.355469 4.765625 -5.429688 4.8125 -5.476562 L 4.765625 -5.503906 L 4.914062 -5.945312 C 4.960938 -6.089844 5.035156 -6.238281 5.109375 -6.386719 L 5.109375 -6.433594 C 5.109375 -6.460938 5.109375 -6.484375 5.132812 -6.535156 C 5.15625 -6.582031 5.183594 -6.632812 5.207031 -6.707031 C 5.207031 -6.730469 5.207031 -6.730469 5.207031 -6.730469 C 5.207031 -6.730469 5.207031 -6.753906 5.207031 -6.777344 C 5.230469 -6.777344 5.257812 -6.753906 5.28125 -6.730469 C 5.28125 -6.953125 5.328125 -7.097656 5.429688 -7.171875 C 5.527344 -7.246094 5.574219 -7.320312 5.574219 -7.394531 L 5.527344 -7.394531 C 5.699219 -7.761719 5.796875 -8.007812 5.847656 -8.128906 C 5.894531 -8.253906 5.945312 -8.375 5.992188 -8.5 C 6.042969 -8.621094 6.117188 -8.792969 6.214844 -9.039062 C 6.3125 -9.285156 6.484375 -9.703125 6.753906 -10.316406 C 6.753906 -10.242188 6.777344 -10.265625 6.804688 -10.390625 C 6.828125 -10.511719 6.851562 -10.660156 6.878906 -10.832031 C 6.902344 -11.003906 6.925781 -11.175781 6.976562 -11.347656 L 7.023438 -11.59375 C 7.023438 -11.617188 7 -11.644531 6.976562 -11.667969 C 7 -11.667969 7 -11.667969 7 -11.667969 C 7 -11.667969 7 -11.667969 7.023438 -11.667969 C 7.34375 -11.667969 7.738281 -11.617188 8.179688 -11.542969 C 8.621094 -11.46875 9.1875 -11.25 9.898438 -10.90625 C 10.023438 -10.78125 10.167969 -10.683594 10.316406 -10.609375 C 10.464844 -10.539062 10.609375 -10.4375 10.734375 -10.339844 C 10.855469 -10.242188 10.953125 -10.144531 11.054688 -10.023438 C 11.152344 -9.898438 11.199219 -9.726562 11.199219 -9.503906 C 11.199219 -9.039062 11.078125 -8.597656 10.832031 -8.179688 C 10.585938 -7.761719 10.339844 -7.34375 10.121094 -6.953125 C 9.996094 -6.753906 9.898438 -6.558594 9.824219 -6.386719 C 9.75 -6.214844 9.675781 -6.042969 9.605469 -5.894531 C 9.53125 -5.746094 9.480469 -5.625 9.457031 -5.527344 C 9.382812 -5.328125 9.285156 -5.132812 9.160156 -4.960938 L 8.769531 -4.421875 C 8.71875 -4.347656 8.621094 -4.273438 8.472656 -4.199219 C 8.328125 -4.125 8.082031 -3.90625 7.710938 -3.535156 C 7.6875 -3.5625 7.6875 -3.5625 7.6875 -3.5625 C 7.6875 -3.5625 7.6875 -3.5625 7.664062 -3.585938 C 7.664062 -3.464844 7.589844 -3.316406 7.441406 -3.144531 C 7.296875 -2.972656 7.171875 -2.800781 7.097656 -2.628906 C 6.65625 -2.0625 6.261719 -1.597656 5.917969 -1.226562 C 5.574219 -0.859375 5.230469 -0.539062 4.886719 -0.292969 C 4.542969 -0.0507812 4.175781 0.171875 3.78125 0.367188 C 3.390625 0.566406 2.898438 0.761719 2.332031 0.957031 C 2.332031 0.882812 2.382812 0.8125 2.457031 0.738281 C 2.433594 0.785156 2.433594 0.835938 2.433594 0.859375 C 2.503906 0.8125 2.554688 0.738281 2.554688 0.636719 C 2.554688 0.539062 2.605469 0.441406 2.675781 0.367188 C 2.652344 0.367188 2.628906 0.367188 2.605469 0.34375 C 2.605469 0.269531 2.628906 0.171875 2.703125 0.0742188 C 2.777344 -0.0234375 2.847656 -0.121094 2.921875 -0.246094 C 2.898438 -0.246094 2.875 -0.246094 2.847656 -0.269531 C 2.847656 -0.292969 2.847656 -0.320312 2.875 -0.320312 C 2.898438 -0.320312 2.898438 -0.320312 2.898438 -0.34375 L 2.898438 -0.367188 C 2.898438 -0.34375 2.898438 -0.320312 2.898438 -0.320312 C 2.898438 -0.320312 2.898438 -0.292969 2.898438 -0.269531 C 2.972656 -0.441406 2.996094 -0.539062 2.996094 -0.566406 C 2.972656 -0.566406 2.972656 -0.566406 2.972656 -0.566406 C 2.972656 -0.566406 2.972656 -0.566406 2.949219 -0.566406 C 2.921875 -0.566406 2.921875 -0.589844 2.921875 -0.613281 C 2.898438 -0.589844 2.847656 -0.566406 2.800781 -0.566406 C 2.75 -0.566406 2.703125 -0.539062 2.675781 -0.515625 C 2.652344 -0.539062 2.628906 -0.566406 2.628906 -0.589844 C 2.628906 -0.636719 2.652344 -0.6875 2.675781 -0.710938 C 2.703125 -0.738281 2.726562 -0.761719 2.726562 -0.785156 C 2.726562 -0.8125 2.703125 -0.835938 2.675781 -0.859375 C 2.703125 -0.882812 2.75 -0.882812 2.800781 -0.882812 C 2.824219 -0.859375 2.847656 -0.8125 2.875 -0.761719 C 2.898438 -0.710938 2.898438 -0.636719 2.898438 -0.566406 Z M 11.25 -5.183594 C 11.226562 -5.207031 11.199219 -5.230469 11.175781 -5.28125 C 11.152344 -5.328125 11.125 -5.355469 11.125 -5.378906 C 11.125 -5.402344 11.152344 -5.402344 11.175781 -5.402344 C 11.199219 -5.402344 11.226562 -5.402344 11.226562 -5.429688 C 11.199219 -5.429688 11.199219 -5.429688 11.199219 -5.453125 C 11.199219 -5.476562 11.226562 -5.503906 11.273438 -5.503906 L 11.371094 -5.503906 C 11.496094 -5.503906 11.542969 -5.453125 11.542969 -5.378906 C 11.519531 -5.355469 11.46875 -5.328125 11.421875 -5.304688 C 11.371094 -5.28125 11.324219 -5.257812 11.296875 -5.230469 Z M 9.261719 -2.75 C 9.210938 -2.675781 9.160156 -2.628906 9.136719 -2.628906 C 9.113281 -2.628906 9.039062 -2.554688 8.917969 -2.433594 C 8.890625 -2.457031 8.867188 -2.480469 8.867188 -2.480469 C 8.867188 -2.480469 8.84375 -2.503906 8.816406 -2.53125 C 8.941406 -2.605469 9.0625 -2.703125 9.1875 -2.824219 Z M 3.070312 -1.695312 C 3.09375 -1.597656 3.121094 -1.523438 3.121094 -1.5 C 3.121094 -1.425781 3.070312 -1.351562 2.972656 -1.277344 C 2.921875 -1.300781 2.898438 -1.328125 2.898438 -1.375 C 2.898438 -1.398438 2.921875 -1.425781 2.949219 -1.449219 C 2.972656 -1.425781 2.972656 -1.398438 2.972656 -1.375 C 2.996094 -1.398438 2.996094 -1.425781 2.996094 -1.449219 L 2.996094 -1.546875 C 2.996094 -1.597656 3.019531 -1.621094 3.070312 -1.644531 Z M 3.511719 -11.742188 C 3.4375 -11.742188 3.363281 -11.742188 3.316406 -11.742188 C 3.265625 -11.742188 3.191406 -11.742188 3.121094 -11.742188 C 3.121094 -11.765625 3.167969 -11.789062 3.292969 -11.816406 C 3.414062 -11.839844 3.511719 -11.863281 3.585938 -11.886719 C 3.5625 -11.816406 3.535156 -11.742188 3.511719 -11.691406 C 3.488281 -11.644531 3.464844 -11.59375 3.4375 -11.570312 C 3.4375 -11.59375 3.4375 -11.59375 3.4375 -11.59375 C 3.4375 -11.59375 3.4375 -11.59375 3.4375 -11.617188 Z M 12.058594 -5.574219 C 12.035156 -5.527344 12.011719 -5.453125 12.011719 -5.378906 C 12.011719 -5.304688 11.988281 -5.257812 11.9375 -5.257812 C 11.914062 -5.257812 11.886719 -5.257812 11.863281 -5.28125 C 11.886719 -5.328125 11.914062 -5.378906 11.9375 -5.429688 C 11.960938 -5.476562 11.988281 -5.527344 12.011719 -5.574219 C 12.035156 -5.574219 12.058594 -5.574219 12.085938 -5.550781 Z M 3.414062 -11.644531 C 3.414062 -11.570312 3.363281 -11.519531 3.265625 -11.496094 C 3.167969 -11.46875 3.09375 -11.46875 3.019531 -11.46875 L 2.972656 -11.519531 C 3.046875 -11.542969 3.121094 -11.570312 3.191406 -11.570312 C 3.265625 -11.570312 3.339844 -11.570312 3.414062 -11.59375 Z M 12.207031 -4.667969 L 12.058594 -4.296875 C 12.085938 -4.324219 12.109375 -4.371094 12.132812 -4.445312 C 12.160156 -4.519531 12.183594 -4.59375 12.183594 -4.667969 Z M 3.882812 -12.550781 C 3.882812 -12.625 3.90625 -12.722656 3.980469 -12.847656 L 3.953125 -12.871094 L 3.808594 -12.503906 C 3.832031 -12.527344 3.855469 -12.527344 3.882812 -12.527344 Z M -1.5 1.695312 L -1.523438 1.671875 C -1.546875 1.695312 -1.570312 1.71875 -1.597656 1.742188 C -1.621094 1.769531 -1.621094 1.792969 -1.621094 1.816406 C -1.621094 1.84375 -1.621094 1.84375 -1.621094 1.84375 C -1.621094 1.84375 -1.621094 1.84375 -1.621094 1.867188 C -1.597656 1.84375 -1.570312 1.816406 -1.570312 1.816406 C -1.570312 1.816406 -1.570312 1.792969 -1.570312 1.769531 Z M 5.527344 0.394531 L 5.476562 0.394531 C 5.453125 0.394531 5.402344 0.417969 5.328125 0.492188 C 5.355469 0.464844 5.378906 0.441406 5.402344 0.417969 C 5.429688 0.394531 5.453125 0.367188 5.476562 0.34375 Z M 6.363281 -13.386719 C 6.335938 -13.363281 6.335938 -13.335938 6.335938 -13.3125 C 6.335938 -13.289062 6.335938 -13.265625 6.3125 -13.238281 L 6.460938 -13.238281 C 6.433594 -13.265625 6.433594 -13.289062 6.433594 -13.3125 C 6.433594 -13.335938 6.410156 -13.335938 6.386719 -13.335938 Z M 2.578125 1.226562 C 2.605469 1.203125 2.628906 1.203125 2.652344 1.203125 C 2.675781 1.203125 2.703125 1.203125 2.726562 1.179688 C 2.703125 1.179688 2.675781 1.179688 2.675781 1.179688 C 2.675781 1.179688 2.652344 1.179688 2.628906 1.179688 C 2.628906 1.15625 2.628906 1.128906 2.652344 1.105469 C 2.652344 1.082031 2.652344 1.082031 2.628906 1.082031 C 2.605469 1.105469 2.554688 1.128906 2.503906 1.128906 C 2.503906 1.15625 2.53125 1.15625 2.605469 1.15625 C 2.578125 1.179688 2.578125 1.203125 2.578125 1.203125 C 2.578125 1.203125 2.578125 1.226562 2.554688 1.253906 Z M 2.949219 -10.855469 C 2.949219 -10.832031 2.949219 -10.832031 2.972656 -10.832031 C 2.996094 -10.882812 3.019531 -10.953125 3.046875 -11.054688 C 2.996094 -11.027344 2.949219 -10.953125 2.921875 -10.855469 Z M 3.636719 0.8125 L 3.636719 0.785156 C 3.585938 0.8125 3.535156 0.835938 3.464844 0.859375 C 3.390625 0.882812 3.363281 0.910156 3.363281 0.933594 C 3.414062 0.910156 3.464844 0.882812 3.511719 0.859375 C 3.5625 0.835938 3.609375 0.8125 3.660156 0.785156 Z M 3.636719 0.8125 "/></g></g></g><g fill="#a6a6a6" fill-opacity="1"><g transform="translate(41.637232, 254.041169)"><g><path d="M 8.964844 -5.917969 C 8.988281 -5.945312 9.015625 -5.96875 9.039062 -6.019531 C 9.0625 -6.066406 9.089844 -6.089844 9.113281 -6.117188 C 9.113281 -6.089844 9.113281 -6.066406 9.136719 -6.042969 C 9.160156 -6.066406 9.1875 -6.089844 9.210938 -6.117188 C 9.1875 -6.140625 9.160156 -6.164062 9.136719 -6.191406 C 9.113281 -6.214844 9.089844 -6.238281 9.0625 -6.261719 L 9.210938 -6.335938 C 9.210938 -6.3125 9.210938 -6.289062 9.210938 -6.261719 C 9.210938 -6.238281 9.210938 -6.214844 9.210938 -6.191406 C 9.261719 -6.191406 9.285156 -6.214844 9.285156 -6.289062 C 9.285156 -6.3125 9.285156 -6.335938 9.285156 -6.363281 C 9.285156 -6.386719 9.285156 -6.410156 9.285156 -6.433594 C 9.285156 -6.460938 9.285156 -6.460938 9.308594 -6.460938 C 9.332031 -6.460938 9.332031 -6.460938 9.332031 -6.460938 C 9.332031 -6.460938 9.359375 -6.460938 9.382812 -6.460938 C 9.433594 -6.460938 9.503906 -6.484375 9.605469 -6.558594 C 9.703125 -6.632812 9.800781 -6.707031 9.898438 -6.777344 C 9.996094 -6.851562 10.09375 -6.925781 10.195312 -7 C 10.292969 -7.074219 10.367188 -7.125 10.414062 -7.148438 C 10.585938 -7.222656 10.757812 -7.34375 10.929688 -7.492188 C 11.101562 -7.640625 11.273438 -7.8125 11.445312 -8.007812 C 11.617188 -8.203125 11.789062 -8.398438 11.960938 -8.597656 C 12.132812 -8.792969 12.28125 -8.964844 12.429688 -9.113281 C 12.527344 -9.285156 12.625 -9.433594 12.699219 -9.53125 C 12.773438 -9.628906 12.847656 -9.726562 12.894531 -9.800781 C 12.945312 -9.875 12.992188 -9.949219 13.042969 -10.023438 C 13.09375 -10.09375 13.140625 -10.195312 13.191406 -10.316406 C 13.265625 -10.464844 13.386719 -10.660156 13.558594 -10.90625 C 13.730469 -11.152344 13.804688 -11.371094 13.804688 -11.542969 C 13.78125 -11.542969 13.753906 -11.570312 13.753906 -11.644531 C 13.753906 -11.667969 13.78125 -11.714844 13.828125 -11.765625 C 13.878906 -11.816406 13.902344 -11.863281 13.902344 -11.9375 C 13.828125 -12.011719 13.804688 -12.058594 13.804688 -12.085938 C 13.804688 -12.109375 13.804688 -12.132812 13.804688 -12.160156 C 13.804688 -12.183594 13.804688 -12.207031 13.804688 -12.230469 L 13.804688 -12.28125 C 13.828125 -12.28125 13.851562 -12.28125 13.851562 -12.28125 C 13.851562 -12.28125 13.878906 -12.28125 13.902344 -12.28125 C 13.878906 -12.355469 13.851562 -12.429688 13.851562 -12.476562 C 13.851562 -12.527344 13.828125 -12.574219 13.804688 -12.648438 C 13.804688 -12.871094 13.753906 -13.066406 13.679688 -13.238281 C 13.609375 -13.410156 13.507812 -13.558594 13.386719 -13.679688 C 13.265625 -13.804688 13.140625 -13.925781 13.019531 -14.023438 C 12.894531 -14.125 12.773438 -14.222656 12.675781 -14.320312 C 12.722656 -14.367188 12.746094 -14.394531 12.746094 -14.417969 C 12.625 -14.589844 12.429688 -14.738281 12.183594 -14.859375 C 11.9375 -14.984375 11.667969 -15.03125 11.398438 -15.03125 C 11.371094 -15.03125 11.347656 -15.03125 11.324219 -15.03125 C 11.296875 -15.03125 11.273438 -15.03125 11.25 -15.03125 C 11.175781 -15.03125 11.101562 -15.058594 11.054688 -15.128906 C 11.003906 -15.203125 10.90625 -15.230469 10.78125 -15.230469 C 10.757812 -15.230469 10.636719 -15.179688 10.4375 -15.082031 C 10.242188 -14.984375 10.023438 -14.886719 9.800781 -14.8125 C 9.824219 -14.835938 9.800781 -14.8125 9.726562 -14.738281 C 9.652344 -14.664062 9.554688 -14.589844 9.433594 -14.515625 C 9.308594 -14.441406 9.1875 -14.367188 9.0625 -14.296875 C 8.941406 -14.222656 8.84375 -14.195312 8.769531 -14.195312 C 8.746094 -14.195312 8.644531 -14.125 8.5 -13.953125 C 8.351562 -13.78125 8.128906 -13.609375 7.859375 -13.4375 C 7.761719 -13.363281 7.566406 -13.191406 7.269531 -12.917969 C 6.976562 -12.648438 6.632812 -12.304688 6.238281 -11.886719 C 5.847656 -11.46875 5.429688 -10.980469 4.984375 -10.414062 C 4.542969 -9.847656 4.125 -9.234375 3.707031 -8.597656 C 3.585938 -8.425781 3.4375 -8.203125 3.265625 -7.957031 C 3.09375 -7.710938 2.921875 -7.46875 2.777344 -7.222656 C 2.628906 -6.976562 2.480469 -6.730469 2.359375 -6.507812 C 2.234375 -6.289062 2.1875 -6.089844 2.1875 -5.945312 C 2.039062 -5.574219 1.914062 -5.230469 1.816406 -4.9375 C 1.71875 -4.640625 1.621094 -4.371094 1.5 -4.125 C 1.375 -3.882812 1.226562 -3.660156 1.054688 -3.464844 C 0.882812 -3.265625 0.613281 -3.09375 0.269531 -2.921875 L 0.269531 -2.949219 C 0.246094 -2.921875 0.222656 -2.898438 0.222656 -2.875 C 0.222656 -2.847656 0.195312 -2.824219 0.171875 -2.800781 C 0.222656 -2.800781 0.269531 -2.800781 0.320312 -2.800781 C 0.367188 -2.800781 0.417969 -2.800781 0.492188 -2.800781 C 0.417969 -2.726562 0.34375 -2.652344 0.292969 -2.605469 C 0.246094 -2.554688 0.171875 -2.503906 0.0976562 -2.457031 C 0.222656 -2.457031 0.292969 -2.457031 0.320312 -2.433594 C 0.34375 -2.40625 0.394531 -2.40625 0.441406 -2.40625 L 0.957031 -2.480469 L 0.957031 -2.382812 C 0.957031 -2.015625 0.910156 -1.621094 0.8125 -1.203125 C 0.710938 -0.785156 0.636719 -0.394531 0.613281 -0.0234375 C 0.613281 0.121094 0.636719 0.246094 0.710938 0.34375 C 0.785156 0.441406 0.859375 0.539062 0.957031 0.636719 C 1.054688 0.738281 1.15625 0.835938 1.253906 0.910156 C 1.351562 0.984375 1.398438 1.054688 1.425781 1.128906 C 1.546875 1.351562 1.695312 1.570312 1.890625 1.769531 C 2.085938 1.964844 2.308594 2.113281 2.578125 2.234375 C 2.847656 2.359375 3.121094 2.457031 3.390625 2.53125 C 3.660156 2.605469 3.929688 2.628906 4.199219 2.628906 C 4.296875 2.628906 4.398438 2.628906 4.519531 2.628906 C 4.640625 2.628906 4.742188 2.605469 4.8125 2.554688 C 4.960938 2.480469 5.085938 2.40625 5.15625 2.332031 C 5.230469 2.257812 5.304688 2.1875 5.378906 2.113281 C 5.453125 2.039062 5.527344 1.964844 5.601562 1.890625 C 5.675781 1.816406 5.773438 1.769531 5.917969 1.71875 L 5.871094 1.71875 C 5.847656 1.71875 5.917969 1.71875 6.066406 1.695312 C 6.214844 1.671875 6.410156 1.644531 6.632812 1.597656 C 6.851562 1.546875 7.074219 1.5 7.296875 1.425781 C 7.515625 1.351562 7.6875 1.277344 7.8125 1.179688 C 7.835938 1.203125 7.859375 1.203125 7.882812 1.203125 L 7.957031 1.128906 L 7.984375 1.15625 C 8.007812 1.128906 8.15625 1.082031 8.398438 0.984375 C 8.644531 0.882812 8.867188 0.785156 9.089844 0.664062 C 9.0625 0.6875 9.089844 0.6875 9.1875 0.664062 C 9.285156 0.636719 9.382812 0.589844 9.503906 0.515625 C 9.628906 0.441406 9.75 0.367188 9.875 0.269531 C 9.996094 0.171875 10.070312 0.0507812 10.121094 -0.0742188 C 10.144531 -0.121094 10.21875 -0.195312 10.339844 -0.269531 C 10.464844 -0.34375 10.585938 -0.441406 10.710938 -0.539062 C 10.832031 -0.636719 10.953125 -0.761719 11.078125 -0.882812 C 11.199219 -1.007812 11.25 -1.128906 11.25 -1.253906 C 11.25 -1.277344 11.25 -1.300781 11.25 -1.328125 C 11.25 -1.351562 11.25 -1.375 11.25 -1.398438 C 11.226562 -1.375 11.175781 -1.375 11.101562 -1.375 L 11.027344 -1.375 C 10.953125 -1.375 10.90625 -1.351562 10.90625 -1.300781 C 10.90625 -1.253906 10.855469 -1.179688 10.757812 -1.082031 C 10.144531 -0.613281 9.433594 -0.171875 8.621094 0.222656 C 7.8125 0.613281 6.828125 0.882812 5.675781 1.03125 C 5.109375 1.03125 4.742188 0.984375 4.570312 0.882812 C 4.398438 0.785156 4.296875 0.589844 4.296875 0.269531 C 4.296875 0.222656 4.296875 0.171875 4.296875 0.121094 C 4.296875 0.0742188 4.296875 0.0234375 4.296875 -0.0234375 C 4.296875 -0.0507812 4.296875 -0.0976562 4.296875 -0.148438 C 4.296875 -0.195312 4.296875 -0.246094 4.296875 -0.269531 C 4.296875 -0.417969 4.324219 -0.566406 4.398438 -0.710938 C 4.46875 -0.859375 4.542969 -0.984375 4.617188 -1.105469 C 4.59375 -1.082031 4.640625 -1.128906 4.742188 -1.277344 C 4.839844 -1.425781 4.886719 -1.570312 4.886719 -1.742188 C 5.011719 -1.890625 5.109375 -2.039062 5.207031 -2.210938 C 5.28125 -2.332031 5.355469 -2.480469 5.429688 -2.628906 C 5.503906 -2.777344 5.527344 -2.921875 5.527344 -3.046875 L 5.503906 -3.09375 C 5.503906 -3.121094 5.550781 -3.167969 5.648438 -3.242188 C 5.746094 -3.316406 5.796875 -3.390625 5.796875 -3.464844 C 5.796875 -3.488281 5.773438 -3.511719 5.746094 -3.535156 C 5.796875 -3.585938 5.820312 -3.636719 5.820312 -3.660156 L 5.820312 -3.707031 L 5.917969 -3.855469 L 5.917969 -3.882812 C 5.917969 -3.929688 5.96875 -3.980469 6.066406 -4.003906 L 5.992188 -4.078125 C 6.019531 -4.101562 6.042969 -4.125 6.066406 -4.152344 C 6.089844 -4.175781 6.117188 -4.199219 6.140625 -4.226562 C 6.117188 -4.152344 6.089844 -4.078125 6.066406 -4.027344 C 6.042969 -3.980469 6.019531 -3.929688 5.96875 -3.882812 C 5.992188 -3.90625 6.019531 -3.929688 6.042969 -3.953125 L 6.117188 -4.027344 C 6.117188 -3.980469 6.117188 -3.929688 6.117188 -3.90625 C 6.117188 -3.882812 6.117188 -3.855469 6.117188 -3.832031 L 6.214844 -3.980469 C 6.238281 -4.027344 6.261719 -4.078125 6.261719 -4.152344 L 6.261719 -4.175781 C 6.3125 -4.226562 6.363281 -4.273438 6.386719 -4.324219 C 6.410156 -4.371094 6.460938 -4.421875 6.507812 -4.445312 C 6.433594 -4.398438 6.484375 -4.398438 6.65625 -4.46875 C 6.828125 -4.542969 7.023438 -4.640625 7.269531 -4.765625 C 7.515625 -4.886719 7.738281 -5.011719 7.957031 -5.132812 C 8.179688 -5.257812 8.277344 -5.328125 8.277344 -5.355469 C 8.277344 -5.378906 8.277344 -5.378906 8.253906 -5.378906 C 8.253906 -5.402344 8.277344 -5.429688 8.351562 -5.453125 C 8.425781 -5.476562 8.472656 -5.503906 8.5 -5.527344 C 8.472656 -5.527344 8.472656 -5.527344 8.472656 -5.503906 C 8.472656 -5.476562 8.449219 -5.453125 8.425781 -5.429688 C 8.472656 -5.453125 8.5 -5.476562 8.5 -5.503906 L 8.5 -5.625 C 8.5 -5.648438 8.523438 -5.675781 8.546875 -5.675781 C 8.597656 -5.675781 8.621094 -5.648438 8.621094 -5.601562 C 8.644531 -5.601562 8.671875 -5.625 8.695312 -5.699219 Z M 4.8125 -2.234375 C 4.8125 -2.210938 4.8125 -2.136719 4.8125 -2.039062 C 4.8125 -1.941406 4.765625 -1.890625 4.691406 -1.890625 C 4.640625 -1.890625 4.617188 -1.890625 4.59375 -1.914062 C 4.570312 -1.890625 4.570312 -1.941406 4.59375 -2.039062 C 4.617188 -2.136719 4.667969 -2.1875 4.742188 -2.1875 C 4.765625 -2.1875 4.789062 -2.1875 4.8125 -2.160156 C 4.789062 -2.257812 4.765625 -2.332031 4.765625 -2.382812 C 4.789062 -2.40625 4.8125 -2.457031 4.839844 -2.503906 C 4.863281 -2.554688 4.886719 -2.578125 4.914062 -2.578125 C 4.9375 -2.578125 4.960938 -2.578125 4.984375 -2.554688 C 4.9375 -2.53125 4.914062 -2.457031 4.914062 -2.332031 C 4.914062 -2.210938 4.863281 -2.136719 4.789062 -2.136719 Z M 7.246094 -5.699219 C 7.640625 -6.191406 8.082031 -6.804688 8.574219 -7.566406 C 9.0625 -8.328125 9.628906 -9.0625 10.242188 -9.777344 C 10.265625 -9.777344 10.316406 -9.824219 10.390625 -9.921875 C 10.464844 -10.023438 10.5625 -10.144531 10.660156 -10.265625 C 10.757812 -10.390625 10.855469 -10.539062 10.953125 -10.683594 C 11.054688 -10.832031 11.125 -10.953125 11.152344 -11.054688 L 11.125 -11.078125 C 11.152344 -11.101562 11.175781 -11.152344 11.199219 -11.199219 C 11.226562 -11.25 11.25 -11.273438 11.273438 -11.273438 C 11.25 -11.25 11.25 -11.199219 11.25 -11.152344 C 11.273438 -11.152344 11.296875 -11.175781 11.324219 -11.25 C 11.347656 -11.324219 11.371094 -11.371094 11.398438 -11.398438 C 11.371094 -11.46875 11.347656 -11.542969 11.324219 -11.644531 C 11.347656 -11.644531 11.371094 -11.644531 11.398438 -11.644531 C 11.421875 -11.644531 11.445312 -11.644531 11.46875 -11.644531 C 11.46875 -11.617188 11.46875 -11.59375 11.46875 -11.570312 C 11.46875 -11.542969 11.46875 -11.519531 11.46875 -11.496094 L 11.496094 -11.46875 C 11.519531 -11.496094 11.570312 -11.570312 11.644531 -11.667969 C 11.714844 -11.765625 11.789062 -11.863281 11.886719 -11.960938 C 11.988281 -12.058594 12.109375 -12.132812 12.28125 -12.207031 C 12.453125 -12.28125 12.648438 -12.304688 12.871094 -12.304688 C 12.945312 -12.183594 12.992188 -12.058594 13.019531 -11.914062 C 13.042969 -11.765625 13.042969 -11.617188 13.042969 -11.496094 C 13.042969 -11.421875 13.019531 -11.324219 12.992188 -11.199219 C 12.871094 -10.660156 12.699219 -10.21875 12.503906 -9.898438 C 12.304688 -9.578125 12.085938 -9.285156 11.863281 -9.039062 C 11.644531 -8.792969 11.398438 -8.574219 11.152344 -8.375 C 10.90625 -8.179688 10.683594 -7.933594 10.464844 -7.664062 C 10.046875 -7.246094 9.53125 -6.851562 8.890625 -6.484375 C 8.253906 -6.117188 7.6875 -5.773438 7.171875 -5.476562 Z M 4.46875 -1.300781 C 4.347656 -1.128906 4.273438 -0.984375 4.25 -0.859375 C 4.226562 -0.738281 4.152344 -0.613281 4.027344 -0.492188 C 4.003906 -0.515625 3.980469 -0.566406 3.980469 -0.613281 C 3.980469 -0.6875 4.003906 -0.8125 4.078125 -0.984375 C 4.152344 -1.15625 4.199219 -1.253906 4.25 -1.300781 C 4.273438 -1.300781 4.296875 -1.300781 4.324219 -1.300781 C 4.347656 -1.300781 4.371094 -1.300781 4.398438 -1.300781 Z M 5.109375 -3.191406 C 5.15625 -3.144531 5.183594 -3.121094 5.183594 -3.09375 C 5.183594 -3.019531 5.15625 -2.949219 5.085938 -2.898438 C 5.011719 -2.847656 4.984375 -2.777344 4.984375 -2.703125 L 4.984375 -2.675781 C 4.984375 -2.652344 4.9375 -2.605469 4.839844 -2.53125 L 4.8125 -2.554688 L 4.863281 -2.628906 C 4.886719 -2.675781 4.914062 -2.726562 4.960938 -2.800781 C 5.011719 -2.875 5.035156 -2.949219 5.058594 -3.019531 C 5.085938 -3.09375 5.109375 -3.144531 5.109375 -3.167969 C 5.109375 -3.191406 5.109375 -3.191406 5.109375 -3.191406 C 5.109375 -3.191406 5.109375 -3.191406 5.109375 -3.21875 Z M 12.453125 -13.609375 C 12.355469 -13.632812 12.257812 -13.65625 12.183594 -13.65625 C 12.109375 -13.65625 12.058594 -13.679688 12.058594 -13.753906 C 12.058594 -13.804688 12.085938 -13.851562 12.132812 -13.902344 C 12.183594 -13.878906 12.257812 -13.828125 12.332031 -13.753906 C 12.402344 -13.679688 12.453125 -13.632812 12.453125 -13.609375 Z M 4.25 -1.449219 C 4.273438 -1.472656 4.296875 -1.5 4.296875 -1.523438 C 4.296875 -1.546875 4.324219 -1.570312 4.347656 -1.597656 C 4.371094 -1.570312 4.371094 -1.546875 4.371094 -1.523438 C 4.371094 -1.5 4.398438 -1.472656 4.421875 -1.449219 C 4.398438 -1.425781 4.371094 -1.398438 4.347656 -1.375 C 4.324219 -1.398438 4.273438 -1.425781 4.199219 -1.449219 Z M 12.625 -12.304688 L 12.378906 -12.304688 C 12.378906 -12.332031 12.402344 -12.355469 12.453125 -12.355469 C 12.476562 -12.355469 12.503906 -12.355469 12.550781 -12.355469 C 12.601562 -12.355469 12.625 -12.332031 12.625 -12.304688 Z M 12.625 -12.304688 "/></g></g></g><g fill="#a6a6a6" fill-opacity="1"><g transform="translate(60.920236, 254.041169)"><g><path d="M 3.585938 -0.269531 C 3.609375 -0.292969 3.609375 -0.320312 3.609375 -0.34375 C 3.609375 -0.367188 3.609375 -0.394531 3.636719 -0.417969 C 3.660156 -0.441406 3.832031 -0.566406 4.152344 -0.761719 C 4.46875 -0.957031 4.863281 -1.328125 5.355469 -1.867188 C 5.328125 -1.867188 5.355469 -1.890625 5.429688 -1.941406 C 5.503906 -1.988281 5.601562 -2.0625 5.722656 -2.160156 C 5.847656 -2.257812 5.96875 -2.359375 6.089844 -2.480469 C 6.214844 -2.605469 6.3125 -2.726562 6.386719 -2.847656 C 6.410156 -2.847656 6.410156 -2.847656 6.410156 -2.847656 C 6.410156 -2.847656 6.410156 -2.847656 6.433594 -2.847656 L 6.484375 -2.949219 L 6.535156 -3.046875 C 6.558594 -3.121094 6.632812 -3.265625 6.753906 -3.488281 C 6.878906 -3.707031 7 -3.855469 7.125 -3.929688 C 7.171875 -3.953125 7.222656 -4.027344 7.296875 -4.125 C 7.367188 -4.226562 7.441406 -4.324219 7.515625 -4.421875 C 7.589844 -4.519531 7.664062 -4.617188 7.738281 -4.691406 C 7.8125 -4.765625 7.882812 -4.8125 7.933594 -4.8125 L 7.957031 -4.8125 C 8.007812 -4.8125 8.054688 -4.863281 8.105469 -4.9375 C 8.15625 -5.011719 8.179688 -5.085938 8.203125 -5.132812 C 8.179688 -5.109375 8.203125 -5.132812 8.253906 -5.183594 C 8.300781 -5.230469 8.375 -5.304688 8.472656 -5.402344 C 8.574219 -5.503906 8.644531 -5.601562 8.71875 -5.722656 C 8.792969 -5.847656 8.84375 -5.96875 8.867188 -6.089844 C 8.867188 -6.117188 8.867188 -6.117188 8.890625 -6.089844 C 8.917969 -6.066406 8.917969 -6.042969 8.917969 -6.019531 C 8.988281 -6.042969 9.039062 -6.066406 9.0625 -6.089844 C 9.089844 -6.117188 9.113281 -6.164062 9.136719 -6.214844 C 9.160156 -6.261719 9.1875 -6.363281 9.210938 -6.484375 C 9.234375 -6.605469 9.308594 -6.777344 9.433594 -7 C 9.40625 -7 9.382812 -7 9.359375 -7.023438 C 9.332031 -6.976562 9.285156 -6.878906 9.210938 -6.730469 C 9.136719 -6.582031 9.089844 -6.507812 9.0625 -6.507812 C 9.0625 -6.582031 9.089844 -6.707031 9.160156 -6.851562 C 9.234375 -7 9.285156 -7.125 9.308594 -7.195312 C 9.1875 -7.050781 9.089844 -6.878906 8.988281 -6.707031 C 8.890625 -6.535156 8.792969 -6.363281 8.695312 -6.191406 L 8.671875 -6.214844 C 8.695312 -6.289062 8.71875 -6.335938 8.746094 -6.386719 C 8.769531 -6.433594 8.792969 -6.484375 8.816406 -6.558594 C 8.792969 -6.535156 8.792969 -6.558594 8.84375 -6.632812 L 8.988281 -6.925781 C 9.039062 -7.050781 9.089844 -7.148438 9.136719 -7.246094 C 9.1875 -7.34375 9.210938 -7.394531 9.234375 -7.394531 C 9.234375 -7.417969 9.234375 -7.441406 9.210938 -7.46875 L 9.308594 -7.46875 C 9.308594 -7.492188 9.308594 -7.492188 9.308594 -7.492188 C 9.308594 -7.492188 9.308594 -7.492188 9.308594 -7.515625 C 9.308594 -7.589844 9.332031 -7.640625 9.40625 -7.664062 C 9.40625 -7.640625 9.40625 -7.613281 9.40625 -7.613281 C 9.40625 -7.613281 9.40625 -7.589844 9.40625 -7.566406 C 9.433594 -7.589844 9.457031 -7.613281 9.480469 -7.640625 C 9.503906 -7.664062 9.53125 -7.6875 9.554688 -7.710938 C 9.457031 -7.6875 9.40625 -7.664062 9.382812 -7.664062 L 9.382812 -7.710938 C 9.382812 -7.738281 9.382812 -7.761719 9.40625 -7.785156 C 9.382812 -7.8125 9.382812 -7.835938 9.382812 -7.859375 C 9.382812 -7.882812 9.40625 -7.910156 9.457031 -7.933594 C 9.503906 -7.957031 9.53125 -7.984375 9.53125 -8.007812 C 9.53125 -8.03125 9.503906 -8.054688 9.480469 -8.082031 C 9.503906 -8.179688 9.53125 -8.253906 9.554688 -8.277344 C 9.53125 -8.300781 9.503906 -8.300781 9.480469 -8.300781 C 9.433594 -8.226562 9.382812 -8.15625 9.332031 -8.082031 C 9.285156 -8.007812 9.261719 -7.933594 9.261719 -7.882812 C 9.261719 -7.859375 9.261719 -7.835938 9.285156 -7.8125 C 9.285156 -7.785156 9.261719 -7.761719 9.210938 -7.761719 C 9.160156 -7.761719 9.136719 -7.738281 9.160156 -7.710938 C 9.136719 -7.6875 9.113281 -7.613281 9.0625 -7.492188 C 9.015625 -7.367188 8.941406 -7.296875 8.867188 -7.269531 C 8.890625 -7.246094 8.917969 -7.222656 8.941406 -7.222656 C 8.964844 -7.222656 8.964844 -7.195312 8.941406 -7.171875 C 8.890625 -7.171875 8.84375 -7.171875 8.816406 -7.195312 C 8.792969 -7.171875 8.792969 -7.148438 8.792969 -7.125 C 8.792969 -7.097656 8.792969 -7.074219 8.769531 -7.074219 C 8.746094 -7.074219 8.71875 -7.074219 8.695312 -7.097656 C 8.671875 -7.074219 8.644531 -7.050781 8.621094 -7.023438 C 8.597656 -7 8.574219 -6.976562 8.546875 -6.953125 C 8.523438 -6.878906 8.472656 -6.753906 8.375 -6.605469 C 8.277344 -6.460938 8.179688 -6.3125 8.054688 -6.164062 C 7.933594 -6.019531 7.8125 -5.847656 7.6875 -5.675781 C 7.566406 -5.503906 7.441406 -5.355469 7.34375 -5.207031 L 7.195312 -4.9375 C 7.097656 -4.765625 6.976562 -4.570312 6.851562 -4.347656 C 6.730469 -4.125 6.605469 -3.929688 6.484375 -3.734375 C 6.363281 -3.535156 6.261719 -3.4375 6.214844 -3.4375 C 5.992188 -3.167969 5.773438 -2.949219 5.574219 -2.75 C 5.378906 -2.554688 5.207031 -2.359375 5.035156 -2.1875 C 4.863281 -2.015625 4.691406 -1.867188 4.519531 -1.71875 C 4.347656 -1.570312 4.152344 -1.425781 3.953125 -1.277344 L 3.953125 -1.351562 C 3.90625 -1.277344 3.882812 -1.253906 3.855469 -1.253906 C 3.832031 -1.253906 3.78125 -1.300781 3.707031 -1.375 C 3.734375 -1.449219 3.757812 -1.523438 3.808594 -1.597656 C 3.929688 -1.597656 3.980469 -1.546875 3.980469 -1.472656 L 4.027344 -1.523438 L 4.054688 -1.523438 C 4.078125 -1.523438 4.101562 -1.523438 4.101562 -1.546875 C 4.101562 -1.671875 4.054688 -1.71875 3.980469 -1.695312 C 3.90625 -1.671875 3.855469 -1.695312 3.855469 -1.769531 C 3.855469 -1.816406 3.855469 -1.867188 3.855469 -1.914062 C 3.855469 -1.964844 3.855469 -2.015625 3.855469 -2.085938 C 3.832031 -2.136719 3.832031 -2.210938 3.832031 -2.308594 C 3.832031 -2.480469 3.90625 -2.652344 4.054688 -2.824219 C 4.199219 -2.996094 4.273438 -3.21875 4.273438 -3.488281 L 4.25 -3.535156 C 4.296875 -3.707031 4.371094 -3.855469 4.46875 -3.980469 C 4.570312 -4.101562 4.640625 -4.25 4.714844 -4.421875 C 4.742188 -4.347656 4.765625 -4.296875 4.765625 -4.273438 C 4.765625 -4.25 4.765625 -4.226562 4.765625 -4.199219 C 4.765625 -4.175781 4.765625 -4.152344 4.765625 -4.125 C 4.839844 -4.226562 4.886719 -4.324219 4.914062 -4.445312 C 4.9375 -4.570312 4.960938 -4.691406 4.984375 -4.8125 C 4.886719 -4.691406 4.8125 -4.59375 4.765625 -4.542969 C 4.839844 -4.765625 4.886719 -4.984375 4.9375 -5.183594 C 4.984375 -5.378906 5.035156 -5.601562 5.109375 -5.820312 L 5.058594 -5.820312 C 5.085938 -5.945312 5.132812 -6.042969 5.183594 -6.140625 C 5.230469 -6.238281 5.28125 -6.335938 5.304688 -6.460938 C 5.304688 -6.484375 5.28125 -6.558594 5.257812 -6.65625 C 5.28125 -6.632812 5.28125 -6.605469 5.28125 -6.582031 C 5.304688 -6.605469 5.328125 -6.65625 5.355469 -6.730469 L 5.355469 -6.777344 C 5.355469 -6.828125 5.355469 -6.878906 5.378906 -6.925781 C 5.402344 -6.976562 5.429688 -7.023438 5.453125 -7.074219 L 5.601562 -7.296875 C 5.675781 -7.394531 5.746094 -7.539062 5.820312 -7.710938 L 5.820312 -7.761719 L 5.871094 -7.738281 L 5.871094 -7.785156 C 5.871094 -7.761719 5.894531 -7.761719 5.945312 -7.8125 C 5.992188 -7.859375 6.042969 -7.933594 6.089844 -8.03125 C 6.140625 -8.128906 6.191406 -8.226562 6.238281 -8.351562 C 6.289062 -8.472656 6.3125 -8.574219 6.3125 -8.671875 L 6.289062 -8.695312 C 6.363281 -8.695312 6.386719 -8.695312 6.386719 -8.71875 L 6.386719 -8.792969 C 6.410156 -8.84375 6.460938 -8.941406 6.558594 -9.089844 C 6.65625 -9.234375 6.707031 -9.332031 6.707031 -9.382812 C 6.707031 -9.40625 6.707031 -9.433594 6.679688 -9.457031 C 6.65625 -9.480469 6.65625 -9.503906 6.65625 -9.53125 C 6.679688 -9.605469 6.730469 -9.675781 6.828125 -9.777344 C 6.925781 -9.875 6.976562 -9.949219 6.976562 -10.023438 L 6.976562 -10.121094 C 6.976562 -10.09375 6.976562 -10.09375 6.976562 -10.09375 C 6.976562 -10.09375 6.976562 -10.09375 6.976562 -10.070312 C 6.976562 -10.121094 6.976562 -10.167969 6.953125 -10.195312 C 6.976562 -10.167969 7 -10.167969 7.023438 -10.167969 C 7.097656 -10.167969 7.148438 -10.242188 7.195312 -10.367188 C 7.246094 -10.488281 7.269531 -10.585938 7.269531 -10.660156 C 7.269531 -10.683594 7.269531 -10.710938 7.269531 -10.734375 C 7.269531 -10.757812 7.269531 -10.78125 7.269531 -10.808594 C 7.269531 -10.882812 7.296875 -10.90625 7.320312 -10.90625 C 7.296875 -10.929688 7.296875 -10.953125 7.296875 -10.980469 C 7.296875 -11.101562 7.320312 -11.25 7.367188 -11.398438 C 7.417969 -11.542969 7.441406 -11.691406 7.441406 -11.839844 L 7.441406 -11.816406 C 7.417969 -11.863281 7.417969 -11.914062 7.417969 -11.960938 C 7.417969 -12.011719 7.417969 -12.058594 7.394531 -12.109375 C 7.417969 -12.132812 7.441406 -12.183594 7.441406 -12.257812 L 7.441406 -12.476562 C 7.417969 -12.453125 7.394531 -12.429688 7.367188 -12.402344 C 7.394531 -12.429688 7.394531 -12.476562 7.394531 -12.550781 C 7.367188 -12.648438 7.320312 -12.773438 7.269531 -12.894531 C 7.222656 -13.019531 7.195312 -13.140625 7.195312 -13.265625 C 7.195312 -13.3125 7.195312 -13.363281 7.222656 -13.386719 C 7.195312 -13.363281 7.171875 -13.335938 7.148438 -13.335938 C 7.125 -13.335938 7.097656 -13.3125 7.074219 -13.289062 C 7 -13.363281 6.976562 -13.460938 6.976562 -13.582031 L 6.976562 -13.65625 C 6.976562 -13.730469 6.925781 -13.804688 6.804688 -13.851562 C 6.679688 -13.902344 6.605469 -13.953125 6.582031 -14.023438 C 6.582031 -14 6.558594 -14 6.507812 -14.023438 C 6.460938 -14.050781 6.386719 -14.074219 6.3125 -14.125 C 6.238281 -14.171875 6.164062 -14.222656 6.089844 -14.269531 C 6.019531 -14.320312 5.945312 -14.34375 5.894531 -14.34375 L 5.820312 -14.34375 C 5.773438 -14.34375 5.722656 -14.367188 5.699219 -14.394531 C 5.574219 -14.34375 5.527344 -14.296875 5.527344 -14.246094 L 5.527344 -13.976562 C 5.453125 -14 5.355469 -14.023438 5.207031 -14.074219 C 5.058594 -14.125 4.9375 -14.148438 4.839844 -14.148438 C 4.742188 -14.148438 4.667969 -14.125 4.617188 -14.074219 C 4.570312 -14.023438 4.519531 -13.976562 4.46875 -13.902344 C 4.421875 -13.828125 4.398438 -13.78125 4.371094 -13.730469 C 4.347656 -13.679688 4.296875 -13.65625 4.25 -13.632812 C 4.25 -13.214844 4.125 -12.773438 3.90625 -12.332031 C 3.683594 -11.886719 3.464844 -11.398438 3.242188 -10.882812 C 2.996094 -10.390625 2.824219 -9.824219 2.726562 -9.210938 C 2.628906 -8.597656 2.480469 -8.007812 2.257812 -7.46875 L 2.308594 -7.46875 C 2.285156 -7.394531 2.285156 -7.320312 2.285156 -7.246094 C 2.285156 -7.171875 2.234375 -7.097656 2.160156 -7.050781 C 2.1875 -7.023438 2.210938 -7.023438 2.234375 -7.023438 C 2.160156 -6.804688 2.085938 -6.558594 2.015625 -6.289062 C 1.941406 -6.019531 1.867188 -5.773438 1.792969 -5.527344 L 1.769531 -5.527344 C 1.742188 -5.527344 1.71875 -5.527344 1.71875 -5.503906 C 1.71875 -5.476562 1.71875 -5.453125 1.71875 -5.453125 C 1.71875 -5.453125 1.71875 -5.429688 1.71875 -5.402344 C 1.71875 -5.304688 1.671875 -5.230469 1.570312 -5.183594 L 1.570312 -5.402344 L 1.449219 -5.085938 C 1.375 -4.863281 1.300781 -4.617188 1.226562 -4.347656 C 1.15625 -4.078125 1.082031 -3.78125 1.007812 -3.488281 C 0.933594 -3.191406 0.882812 -2.949219 0.882812 -2.75 L 0.882812 -2.675781 C 0.882812 -2.628906 0.882812 -2.578125 0.859375 -2.53125 C 0.835938 -2.480469 0.835938 -2.433594 0.835938 -2.382812 L 0.835938 -1.621094 C 0.835938 -1.449219 0.835938 -1.300781 0.859375 -1.179688 C 0.882812 -1.054688 0.910156 -0.984375 0.957031 -0.984375 C 1.105469 -0.613281 1.277344 -0.34375 1.472656 -0.195312 C 1.671875 -0.0507812 1.914062 0.0742188 2.234375 0.148438 C 2.480469 0.148438 2.675781 0.121094 2.847656 0.0742188 C 3.019531 0.0234375 3.191406 0 3.390625 0 Z M 7.492188 -4.886719 C 7.46875 -4.914062 7.46875 -4.9375 7.46875 -4.960938 L 7.492188 -4.984375 C 7.492188 -4.960938 7.492188 -4.960938 7.492188 -4.960938 C 7.492188 -4.960938 7.492188 -4.960938 7.492188 -4.9375 L 7.589844 -5.035156 L 7.492188 -5.035156 C 7.515625 -5.058594 7.539062 -5.132812 7.589844 -5.257812 C 7.640625 -5.378906 7.710938 -5.429688 7.8125 -5.429688 L 7.859375 -5.429688 C 7.785156 -5.257812 7.6875 -5.085938 7.589844 -4.9375 C 7.492188 -4.789062 7.367188 -4.640625 7.246094 -4.496094 L 7.222656 -4.519531 C 7.246094 -4.59375 7.269531 -4.640625 7.320312 -4.691406 C 7.367188 -4.742188 7.417969 -4.789062 7.46875 -4.863281 Z M 5.796875 -7.957031 C 5.820312 -8.03125 5.847656 -8.105469 5.871094 -8.203125 C 5.894531 -8.128906 5.917969 -8.082031 5.917969 -8.054688 C 5.917969 -8.007812 5.871094 -7.957031 5.796875 -7.933594 Z M 8.054688 -5.132812 C 8.03125 -5.109375 8.007812 -5.035156 7.984375 -4.9375 C 7.957031 -4.960938 7.933594 -4.960938 7.933594 -4.960938 C 7.933594 -4.960938 7.910156 -4.960938 7.882812 -4.984375 C 7.882812 -5.058594 7.882812 -5.085938 7.910156 -5.085938 C 7.933594 -5.085938 7.957031 -5.109375 8.007812 -5.132812 Z M 8.375 -5.550781 C 8.398438 -5.574219 8.398438 -5.601562 8.398438 -5.648438 C 8.398438 -5.699219 8.398438 -5.746094 8.425781 -5.796875 C 8.449219 -5.773438 8.449219 -5.746094 8.449219 -5.699219 C 8.449219 -5.648438 8.425781 -5.601562 8.375 -5.550781 Z M 9.777344 -8.277344 C 9.847656 -8.375 9.898438 -8.472656 9.949219 -8.574219 C 9.996094 -8.671875 10.046875 -8.769531 10.09375 -8.867188 C 10.09375 -8.746094 10.070312 -8.621094 10.046875 -8.5 C 10.023438 -8.375 9.996094 -8.253906 9.972656 -8.128906 C 10.046875 -8.203125 10.121094 -8.277344 10.195312 -8.375 C 10.265625 -8.472656 10.316406 -8.574219 10.316406 -8.695312 C 10.316406 -8.71875 10.292969 -8.746094 10.242188 -8.746094 C 10.195312 -8.746094 10.167969 -8.746094 10.144531 -8.746094 C 10.167969 -8.816406 10.195312 -8.890625 10.242188 -8.941406 C 10.292969 -8.988281 10.316406 -9.039062 10.316406 -9.113281 C 10.292969 -9.089844 10.265625 -9.089844 10.265625 -9.089844 C 10.265625 -9.089844 10.242188 -9.089844 10.21875 -9.0625 C 10.265625 -9.1875 10.339844 -9.308594 10.4375 -9.433594 C 10.539062 -9.554688 10.636719 -9.675781 10.710938 -9.800781 C 10.636719 -9.726562 10.5625 -9.652344 10.488281 -9.554688 L 10.292969 -9.261719 L 10.195312 -9.210938 C 10.144531 -9.1875 10.070312 -9.136719 9.996094 -9.0625 C 9.921875 -8.988281 9.847656 -8.890625 9.777344 -8.769531 C 9.703125 -8.644531 9.675781 -8.523438 9.675781 -8.375 C 9.726562 -8.375 9.75 -8.351562 9.75 -8.328125 C 9.75 -8.300781 9.75 -8.277344 9.75 -8.253906 C 9.75 -8.226562 9.75 -8.203125 9.75 -8.179688 Z M 11.46875 -10.882812 C 11.421875 -10.855469 11.371094 -10.832031 11.347656 -10.78125 C 11.324219 -10.734375 11.296875 -10.683594 11.273438 -10.660156 C 11.296875 -10.636719 11.324219 -10.609375 11.347656 -10.585938 C 11.324219 -10.511719 11.273438 -10.464844 11.226562 -10.414062 C 11.175781 -10.367188 11.125 -10.316406 11.101562 -10.242188 C 11.125 -10.195312 11.125 -10.144531 11.125 -10.070312 L 11.175781 -10.121094 L 11.226562 -10.023438 L 11.273438 -10.121094 C 11.296875 -10.144531 11.324219 -10.167969 11.347656 -10.195312 L 11.347656 -10.121094 C 11.398438 -10.195312 11.445312 -10.265625 11.46875 -10.316406 C 11.496094 -10.367188 11.542969 -10.4375 11.59375 -10.511719 C 11.519531 -10.464844 11.445312 -10.390625 11.398438 -10.316406 C 11.347656 -10.242188 11.296875 -10.195312 11.25 -10.195312 C 11.226562 -10.195312 11.199219 -10.21875 11.175781 -10.242188 C 11.25 -10.265625 11.324219 -10.339844 11.398438 -10.488281 C 11.46875 -10.636719 11.496094 -10.734375 11.496094 -10.808594 L 11.496094 -10.855469 C 11.46875 -10.832031 11.445312 -10.78125 11.398438 -10.710938 C 11.347656 -10.636719 11.296875 -10.585938 11.273438 -10.585938 C 11.273438 -10.636719 11.273438 -10.683594 11.296875 -10.710938 C 11.324219 -10.734375 11.347656 -10.78125 11.371094 -10.832031 Z M 11.9375 -12.402344 C 11.960938 -12.378906 11.988281 -12.378906 12.011719 -12.378906 C 12.085938 -12.503906 12.160156 -12.625 12.230469 -12.746094 C 12.304688 -12.871094 12.378906 -12.992188 12.453125 -13.117188 L 12.429688 -13.140625 C 12.355469 -13.019531 12.28125 -12.894531 12.207031 -12.773438 C 12.132812 -12.648438 12.058594 -12.527344 11.988281 -12.402344 Z M 9.703125 -8.128906 C 9.675781 -8.128906 9.675781 -8.128906 9.675781 -8.128906 C 9.675781 -8.128906 9.675781 -8.128906 9.652344 -8.128906 C 9.628906 -8.128906 9.605469 -8.082031 9.554688 -7.984375 C 9.503906 -7.882812 9.457031 -7.8125 9.433594 -7.761719 C 9.554688 -7.835938 9.652344 -7.957031 9.703125 -8.105469 Z M 11.175781 -11.027344 L 11.175781 -11.054688 C 11.152344 -11.003906 11.152344 -10.929688 11.152344 -10.808594 L 11.175781 -10.808594 L 11.175781 -10.832031 C 11.175781 -10.90625 11.199219 -10.980469 11.25 -11.078125 C 11.296875 -11.175781 11.347656 -11.25 11.371094 -11.296875 C 11.371094 -11.324219 11.371094 -11.324219 11.347656 -11.324219 L 11.25 -11.175781 Z M 7.269531 -13.117188 L 7.296875 -13.164062 L 7.296875 -13.191406 C 7.222656 -13.214844 7.148438 -13.238281 7.074219 -13.265625 C 7 -13.289062 6.925781 -13.3125 6.851562 -13.335938 C 6.925781 -13.265625 7 -13.214844 7.074219 -13.191406 C 7.148438 -13.164062 7.222656 -13.140625 7.296875 -13.117188 Z M 10.710938 -9.480469 C 10.660156 -9.480469 10.609375 -9.457031 10.5625 -9.382812 C 10.511719 -9.308594 10.488281 -9.234375 10.488281 -9.160156 C 10.511719 -9.234375 10.539062 -9.285156 10.585938 -9.332031 C 10.636719 -9.382812 10.660156 -9.433594 10.683594 -9.480469 Z M 4.863281 -4.765625 C 4.789062 -4.617188 4.765625 -4.519531 4.765625 -4.496094 L 4.789062 -4.445312 L 4.9375 -4.742188 C 4.914062 -4.765625 4.886719 -4.765625 4.863281 -4.765625 Z M 9.40625 -7.738281 C 9.308594 -7.710938 9.261719 -7.640625 9.261719 -7.515625 C 9.261719 -7.492188 9.261719 -7.46875 9.285156 -7.441406 C 9.308594 -7.515625 9.359375 -7.613281 9.433594 -7.738281 Z M 11.25 -10.511719 C 11.125 -10.488281 11.078125 -10.4375 11.078125 -10.367188 L 11.078125 -10.316406 C 11.101562 -10.339844 11.125 -10.367188 11.152344 -10.414062 C 11.175781 -10.464844 11.199219 -10.488281 11.226562 -10.511719 Z M 10.683594 -9.800781 C 10.683594 -9.777344 10.683594 -9.777344 10.710938 -9.777344 C 10.78125 -9.800781 10.808594 -9.847656 10.808594 -9.898438 C 10.808594 -9.949219 10.808594 -9.996094 10.832031 -10.023438 L 10.808594 -10.046875 C 10.734375 -9.921875 10.683594 -9.824219 10.660156 -9.777344 Z M 11.371094 -10.78125 C 11.398438 -10.832031 11.421875 -10.882812 11.445312 -10.929688 C 11.46875 -10.980469 11.496094 -11.027344 11.519531 -11.078125 C 11.496094 -11.078125 11.46875 -11.078125 11.46875 -11.078125 C 11.46875 -11.078125 11.445312 -11.078125 11.421875 -11.078125 C 11.398438 -11.027344 11.371094 -10.980469 11.371094 -10.929688 C 11.371094 -10.882812 11.347656 -10.832031 11.324219 -10.78125 Z M 12.453125 -13.164062 C 12.527344 -13.191406 12.574219 -13.238281 12.574219 -13.289062 L 12.574219 -13.335938 C 12.503906 -13.265625 12.453125 -13.214844 12.429688 -13.164062 Z M 7.492188 -12.917969 C 7.515625 -12.917969 7.515625 -12.917969 7.515625 -12.945312 C 7.492188 -12.96875 7.46875 -12.992188 7.441406 -12.992188 C 7.417969 -12.992188 7.394531 -13.019531 7.367188 -13.042969 L 7.34375 -12.992188 C 7.367188 -12.96875 7.394531 -12.945312 7.417969 -12.917969 C 7.441406 -12.894531 7.46875 -12.871094 7.492188 -12.847656 Z M 9.332031 -7.859375 C 9.308594 -7.859375 9.285156 -7.859375 9.261719 -7.882812 L 9.160156 -7.6875 C 9.1875 -7.710938 9.234375 -7.761719 9.308594 -7.859375 Z M 9.332031 -7.859375 "/></g></g></g><g fill="#a6a6a6" fill-opacity="1"><g transform="translate(77.059248, 254.041169)"><g/></g></g><g fill="#a6a6a6" fill-opacity="1"><g transform="translate(92.09295, 254.041169)"><g><path d="M 7.859375 -1.105469 C 7.882812 -1.105469 7.882812 -1.105469 7.882812 -1.105469 C 7.882812 -1.105469 7.910156 -1.105469 7.933594 -1.105469 L 7.882812 -1.054688 C 7.859375 -1.054688 7.835938 -1.082031 7.835938 -1.128906 C 7.269531 -0.738281 6.632812 -0.394531 5.945312 -0.0742188 C 5.257812 0.246094 4.542969 0.394531 3.832031 0.394531 C 3.660156 0.394531 3.464844 0.394531 3.265625 0.367188 C 3.070312 0.34375 2.875 0.292969 2.703125 0.246094 C 2.53125 0.195312 2.382812 0.121094 2.257812 0 C 2.136719 -0.121094 2.0625 -0.269531 2.0625 -0.441406 C 2.0625 -0.613281 2.085938 -0.835938 2.160156 -1.128906 C 2.234375 -1.425781 2.332031 -1.742188 2.480469 -2.085938 C 2.628906 -2.433594 2.824219 -2.75 3.070312 -3.070312 C 3.316406 -3.390625 3.609375 -3.660156 3.953125 -3.882812 C 4.101562 -3.953125 4.324219 -4.078125 4.617188 -4.226562 C 4.914062 -4.371094 5.109375 -4.542969 5.230469 -4.714844 C 5.230469 -4.789062 5.328125 -4.839844 5.503906 -4.886719 C 5.675781 -4.9375 5.796875 -5.011719 5.871094 -5.109375 C 5.847656 -5.085938 5.871094 -5.109375 5.96875 -5.15625 C 6.066406 -5.207031 6.140625 -5.230469 6.214844 -5.230469 L 6.289062 -5.230469 C 6.363281 -5.230469 6.410156 -5.28125 6.410156 -5.402344 C 6.433594 -5.402344 6.433594 -5.402344 6.433594 -5.402344 C 6.433594 -5.402344 6.433594 -5.402344 6.460938 -5.402344 C 6.484375 -5.402344 6.535156 -5.429688 6.582031 -5.476562 C 6.558594 -5.503906 6.558594 -5.527344 6.558594 -5.550781 C 6.558594 -5.601562 6.632812 -5.648438 6.753906 -5.699219 C 6.878906 -5.746094 6.953125 -5.796875 6.953125 -5.871094 C 6.925781 -5.894531 6.902344 -5.917969 6.878906 -5.945312 C 6.976562 -5.992188 7.050781 -6.042969 7.097656 -6.066406 C 7.148438 -6.089844 7.171875 -6.117188 7.195312 -6.140625 C 7.222656 -6.164062 7.246094 -6.191406 7.269531 -6.238281 C 7.296875 -6.289062 7.34375 -6.335938 7.417969 -6.410156 C 7.492188 -6.582031 7.515625 -6.730469 7.515625 -6.851562 C 7.515625 -6.976562 7.539062 -7.125 7.613281 -7.296875 C 7.613281 -7.269531 7.613281 -7.246094 7.613281 -7.246094 C 7.613281 -7.246094 7.613281 -7.222656 7.613281 -7.195312 C 7.613281 -7.269531 7.640625 -7.320312 7.6875 -7.320312 C 7.738281 -7.320312 7.785156 -7.34375 7.835938 -7.367188 C 7.8125 -7.394531 7.785156 -7.417969 7.785156 -7.417969 C 7.785156 -7.417969 7.761719 -7.441406 7.738281 -7.46875 C 7.835938 -7.492188 7.910156 -7.515625 7.984375 -7.539062 C 7.910156 -7.613281 7.835938 -7.664062 7.761719 -7.710938 C 7.6875 -7.761719 7.589844 -7.785156 7.492188 -7.785156 C 7.417969 -7.785156 7.367188 -7.785156 7.320312 -7.761719 C 7.246094 -7.761719 7.125 -7.785156 6.976562 -7.835938 C 6.828125 -7.882812 6.707031 -7.933594 6.582031 -7.984375 C 6.460938 -8.03125 6.363281 -8.082031 6.261719 -8.128906 C 6.164062 -8.179688 6.117188 -8.226562 6.117188 -8.277344 C 6.117188 -8.300781 6.117188 -8.300781 6.117188 -8.300781 C 6.117188 -8.300781 6.117188 -8.300781 6.117188 -8.328125 C 6.289062 -8.746094 6.484375 -9.113281 6.707031 -9.457031 C 6.925781 -9.800781 7.195312 -10.144531 7.539062 -10.488281 C 7.566406 -10.539062 7.613281 -10.609375 7.710938 -10.710938 C 7.8125 -10.808594 7.910156 -10.90625 8.03125 -11.003906 C 8.15625 -11.101562 8.277344 -11.175781 8.398438 -11.25 C 8.523438 -11.324219 8.644531 -11.371094 8.769531 -11.398438 C 8.792969 -11.398438 8.867188 -11.421875 8.964844 -11.46875 C 9.0625 -11.519531 9.1875 -11.570312 9.332031 -11.617188 C 10.046875 -11.863281 10.511719 -12.035156 10.855469 -11.324219 C 10.929688 -11.324219 10.980469 -11.347656 11.003906 -11.398438 C 11.027344 -11.445312 11.054688 -11.496094 11.101562 -11.570312 C 10.980469 -12.820312 9.136719 -12.402344 8.300781 -12.402344 C 8.03125 -12.402344 7.613281 -12.160156 7.125 -12.035156 C 6.632812 -11.914062 6.164062 -11.714844 5.699219 -11.46875 C 5.230469 -11.226562 4.839844 -10.90625 4.496094 -10.511719 C 4.152344 -10.121094 3.980469 -9.628906 3.980469 -9.0625 C 3.980469 -8.84375 4.027344 -8.597656 4.152344 -8.351562 C 4.273438 -8.105469 4.371094 -7.859375 4.46875 -7.640625 C 4.421875 -7.589844 4.398438 -7.539062 4.398438 -7.515625 C 4.398438 -7.492188 4.296875 -7.417969 4.125 -7.296875 C 3.953125 -7.171875 3.734375 -7.023438 3.488281 -6.851562 C 3.242188 -6.679688 2.996094 -6.507812 2.75 -6.335938 C 2.503906 -6.164062 2.308594 -6.019531 2.160156 -5.894531 C 1.988281 -5.746094 1.769531 -5.527344 1.523438 -5.257812 C 1.277344 -4.984375 1.03125 -4.667969 0.8125 -4.296875 C 0.589844 -3.929688 0.394531 -3.511719 0.222656 -3.070312 C 0.0507812 -2.628906 -0.0507812 -2.160156 -0.0507812 -1.671875 C 0.0507812 -0.910156 0.417969 -0.320312 1.082031 0.0742188 C 1.742188 0.464844 2.554688 0.664062 3.511719 0.664062 C 4.054688 0.664062 4.542969 0.613281 4.984375 0.515625 C 5.429688 0.417969 5.847656 0.292969 6.238281 0.121094 C 6.632812 -0.0507812 7.023438 -0.269531 7.417969 -0.539062 C 7.8125 -0.8125 8.226562 -1.105469 8.671875 -1.425781 C 9.039062 -1.695312 9.382812 -2.015625 9.675781 -2.382812 C 9.972656 -2.75 10.242188 -3.121094 10.511719 -3.488281 C 10.539062 -3.488281 10.5625 -3.464844 10.5625 -3.4375 C 10.636719 -3.5625 10.710938 -3.683594 10.78125 -3.808594 C 10.855469 -3.929688 10.980469 -4.003906 11.125 -4.003906 C 11.152344 -4.003906 11.199219 -4.003906 11.25 -4.003906 C 11.296875 -4.003906 11.347656 -4.003906 11.371094 -4.003906 C 11.667969 -4.003906 11.960938 -4.054688 12.257812 -4.152344 C 12.550781 -4.25 12.820312 -4.371094 13.066406 -4.542969 C 13.3125 -4.714844 13.507812 -4.914062 13.65625 -5.15625 C 13.804688 -5.402344 13.878906 -5.648438 13.878906 -5.917969 L 13.878906 -6.460938 C 13.507812 -6.238281 13.191406 -6.066406 12.945312 -5.945312 C 12.699219 -5.820312 12.476562 -5.722656 12.28125 -5.648438 C 12.085938 -5.574219 11.886719 -5.527344 11.714844 -5.503906 C 11.542969 -5.476562 11.347656 -5.453125 11.125 -5.453125 C 11.101562 -5.453125 11.078125 -5.453125 11.054688 -5.476562 C 11.027344 -5.503906 11.003906 -5.527344 10.980469 -5.550781 C 10.953125 -5.503906 10.90625 -5.476562 10.808594 -5.476562 C 10.585938 -5.503906 10.339844 -5.527344 10.09375 -5.550781 C 9.847656 -5.574219 9.605469 -5.601562 9.382812 -5.601562 C 9.113281 -5.601562 8.84375 -5.574219 8.574219 -5.527344 C 8.300781 -5.476562 8.03125 -5.402344 7.785156 -5.328125 C 7.6875 -5.304688 7.492188 -5.230469 7.195312 -5.109375 C 6.902344 -4.984375 6.605469 -4.8125 6.289062 -4.617188 C 5.96875 -4.421875 5.699219 -4.175781 5.453125 -3.90625 C 5.207031 -3.636719 5.085938 -3.339844 5.085938 -3.019531 C 5.085938 -2.824219 5.183594 -2.726562 5.402344 -2.726562 C 5.429688 -2.726562 5.527344 -2.777344 5.699219 -2.875 C 5.871094 -2.972656 6.019531 -3.046875 6.140625 -3.121094 C 6.117188 -3.121094 6.140625 -3.121094 6.214844 -3.144531 C 6.289062 -3.167969 6.363281 -3.191406 6.460938 -3.242188 C 6.558594 -3.292969 6.65625 -3.339844 6.753906 -3.390625 C 6.851562 -3.4375 6.902344 -3.511719 6.902344 -3.585938 C 6.902344 -3.609375 6.902344 -3.609375 6.902344 -3.609375 C 6.902344 -3.609375 6.902344 -3.609375 6.902344 -3.636719 C 6.902344 -3.707031 7 -3.78125 7.195312 -3.855469 C 7.394531 -3.929688 7.613281 -4.003906 7.859375 -4.054688 C 8.105469 -4.101562 8.351562 -4.152344 8.574219 -4.175781 C 8.792969 -4.199219 8.941406 -4.226562 9.015625 -4.226562 C 9.1875 -4.226562 9.359375 -4.199219 9.53125 -4.175781 C 9.703125 -4.152344 9.875 -4.125 10.046875 -4.101562 C 9.898438 -3.832031 9.75 -3.5625 9.578125 -3.316406 C 9.457031 -3.144531 9.285156 -2.875 9.089844 -2.53125 C 8.890625 -2.1875 8.621094 -1.941406 8.300781 -1.816406 C 8.253906 -1.816406 8.226562 -1.792969 8.226562 -1.742188 L 8.226562 -1.71875 C 8.179688 -1.695312 8.128906 -1.671875 8.082031 -1.644531 C 8.054688 -1.621094 8.007812 -1.597656 7.957031 -1.570312 C 7.910156 -1.546875 7.882812 -1.5 7.859375 -1.449219 L 7.785156 -1.449219 C 7.710938 -1.449219 7.664062 -1.425781 7.613281 -1.375 C 7.566406 -1.328125 7.515625 -1.277344 7.46875 -1.253906 Z M 7.859375 -1.105469 "/></g></g></g><g fill="#a6a6a6" fill-opacity="1"><g transform="translate(114.028697, 254.041169)"><g/></g></g><g fill="#a6a6a6" fill-opacity="1"><g transform="translate(129.062399, 254.041169)"><g><path d="M 10.390625 -7.8125 C 10.023438 -7.859375 9.777344 -7.882812 9.652344 -7.910156 C 9.53125 -7.933594 9.433594 -7.957031 9.359375 -8.007812 C 9.285156 -8.054688 9.160156 -8.105469 9.015625 -8.15625 C 8.867188 -8.203125 8.597656 -8.277344 8.179688 -8.375 C 7.515625 -8.546875 7.050781 -8.792969 6.804688 -9.113281 C 6.558594 -9.433594 6.433594 -9.847656 6.433594 -10.367188 C 6.433594 -10.710938 6.535156 -11.003906 6.707031 -11.273438 C 6.878906 -11.542969 7.074219 -11.765625 7.296875 -11.9375 C 7.515625 -12.109375 7.710938 -12.230469 7.882812 -12.304688 L 8.128906 -12.429688 C 8.300781 -12.503906 8.472656 -12.574219 8.671875 -12.675781 C 8.867188 -12.773438 9.0625 -12.871094 9.261719 -12.945312 C 9.457031 -13.019531 9.652344 -13.09375 9.824219 -13.164062 C 9.996094 -13.238281 10.144531 -13.265625 10.265625 -13.265625 C 10.339844 -13.265625 10.390625 -13.265625 10.4375 -13.265625 C 10.488281 -13.265625 10.539062 -13.265625 10.609375 -13.265625 C 10.683594 -13.265625 10.78125 -13.265625 10.90625 -13.265625 C 11.027344 -13.265625 11.078125 -13.3125 11.078125 -13.386719 C 11.078125 -13.410156 11.027344 -13.460938 10.953125 -13.507812 C 10.882812 -13.558594 10.832031 -13.609375 10.808594 -13.65625 C 10.757812 -13.609375 10.660156 -13.558594 10.511719 -13.535156 C 10.367188 -13.507812 10.21875 -13.484375 10.046875 -13.484375 C 9.875 -13.484375 9.726562 -13.484375 9.578125 -13.484375 C 9.433594 -13.484375 9.332031 -13.484375 9.308594 -13.484375 C 8.964844 -13.460938 8.597656 -13.410156 8.179688 -13.335938 C 7.761719 -13.265625 7.417969 -13.140625 7.148438 -12.992188 C 6.605469 -12.699219 6.164062 -12.332031 5.820312 -11.886719 C 5.476562 -11.445312 5.257812 -11.054688 5.15625 -10.734375 C 5.183594 -10.636719 5.183594 -10.539062 5.183594 -10.4375 C 5.183594 -10.339844 5.183594 -10.242188 5.207031 -10.144531 C 5.207031 -10.09375 5.207031 -10.046875 5.207031 -9.996094 C 5.207031 -9.949219 5.207031 -9.898438 5.207031 -9.847656 C 5.207031 -9.554688 5.304688 -9.285156 5.503906 -9.0625 C 5.699219 -8.84375 5.894531 -8.644531 6.117188 -8.472656 C 6.140625 -8.472656 6.140625 -8.449219 6.117188 -8.425781 C 6.089844 -8.398438 6.117188 -8.375 6.191406 -8.375 C 6.214844 -8.351562 6.261719 -8.300781 6.363281 -8.226562 C 6.410156 -8.203125 6.460938 -8.179688 6.484375 -8.15625 L 6.410156 -8.15625 C 6.484375 -8.128906 6.558594 -8.105469 6.65625 -8.082031 C 6.65625 -8.054688 6.632812 -8.054688 6.582031 -8.054688 C 6.605469 -7.984375 6.65625 -7.933594 6.730469 -7.933594 C 6.804688 -7.933594 6.828125 -7.882812 6.828125 -7.8125 L 6.878906 -7.8125 L 6.902344 -7.835938 C 6.953125 -7.710938 7.074219 -7.640625 7.269531 -7.589844 C 7.46875 -7.539062 7.566406 -7.492188 7.566406 -7.46875 C 7.566406 -7.441406 7.589844 -7.417969 7.664062 -7.417969 C 7.738281 -7.417969 7.8125 -7.367188 7.910156 -7.296875 C 8.007812 -7.222656 8.082031 -7.125 8.15625 -7 C 8.226562 -6.878906 8.253906 -6.679688 8.253906 -6.410156 C 8.253906 -6.289062 8.203125 -6.089844 8.105469 -5.820312 C 8.007812 -5.550781 7.859375 -5.230469 7.640625 -4.863281 C 7.417969 -4.496094 7.125 -4.101562 6.753906 -3.660156 C 6.386719 -3.21875 5.945312 -2.75 5.402344 -2.285156 C 4.984375 -1.964844 4.570312 -1.695312 4.152344 -1.472656 C 3.734375 -1.253906 3.292969 -0.984375 2.847656 -0.664062 C 2.777344 -0.636719 2.726562 -0.613281 2.703125 -0.613281 C 2.234375 -0.613281 1.84375 -0.785156 1.523438 -1.105469 C 1.203125 -1.425781 1.03125 -1.792969 1.03125 -2.210938 C 1.03125 -2.332031 1.03125 -2.457031 1.03125 -2.605469 C 1.03125 -2.75 1.03125 -2.875 1.03125 -2.996094 L 1.03125 -3.242188 C 1.03125 -3.316406 1.03125 -3.363281 1.03125 -3.414062 C 1.03125 -3.464844 1.03125 -3.511719 1.03125 -3.585938 C 1.03125 -3.683594 1.007812 -3.808594 0.933594 -3.980469 C 0.882812 -3.929688 0.8125 -3.882812 0.738281 -3.832031 C 0.664062 -3.78125 0.589844 -3.683594 0.515625 -3.5625 C 0.441406 -3.4375 0.367188 -3.242188 0.320312 -2.996094 C 0.269531 -2.75 0.246094 -2.382812 0.246094 -1.914062 C 0.246094 -1.523438 0.292969 -1.15625 0.367188 -0.8125 C 0.441406 -0.464844 0.589844 -0.148438 0.8125 0.148438 C 1.03125 0.441406 1.351562 0.6875 1.769531 0.910156 C 2.1875 1.128906 2.75 1.300781 3.4375 1.425781 C 3.511719 1.449219 3.585938 1.449219 3.660156 1.449219 C 3.734375 1.449219 3.808594 1.449219 3.882812 1.472656 L 4.152344 1.472656 C 4.199219 1.472656 4.25 1.472656 4.296875 1.5 C 4.347656 1.523438 4.398438 1.523438 4.445312 1.523438 C 4.519531 1.5 4.59375 1.5 4.691406 1.5 C 4.789062 1.5 4.863281 1.5 4.9375 1.472656 C 4.960938 1.472656 5.011719 1.472656 5.058594 1.472656 C 5.109375 1.472656 5.15625 1.472656 5.183594 1.472656 C 5.230469 1.472656 5.304688 1.449219 5.429688 1.425781 C 5.550781 1.398438 5.675781 1.375 5.796875 1.328125 C 5.917969 1.277344 6.019531 1.226562 6.117188 1.179688 L 6.261719 1.128906 C 6.65625 0.933594 6.953125 0.785156 7.148438 0.664062 C 7.34375 0.539062 7.492188 0.441406 7.589844 0.367188 C 7.6875 0.292969 7.761719 0.246094 7.785156 0.222656 C 7.8125 0.195312 7.859375 0.171875 7.910156 0.148438 C 8.449219 -0.0742188 8.890625 -0.34375 9.210938 -0.664062 C 9.53125 -0.984375 9.847656 -1.449219 10.144531 -2.0625 C 10.167969 -2.113281 10.195312 -2.160156 10.242188 -2.210938 C 10.292969 -2.257812 10.316406 -2.308594 10.316406 -2.382812 C 10.316406 -2.40625 10.316406 -2.40625 10.316406 -2.40625 C 10.316406 -2.40625 10.316406 -2.433594 10.316406 -2.457031 C 10.367188 -2.480469 10.414062 -2.53125 10.464844 -2.605469 C 10.511719 -2.675781 10.539062 -2.703125 10.539062 -2.675781 C 10.539062 -2.703125 10.511719 -2.726562 10.464844 -2.777344 C 10.5625 -2.824219 10.636719 -2.898438 10.710938 -3.019531 C 10.78125 -3.144531 10.855469 -3.265625 10.929688 -3.390625 C 11.003906 -3.511719 11.054688 -3.636719 11.078125 -3.757812 C 11.101562 -3.882812 11.125 -3.953125 11.152344 -3.980469 C 11.296875 -4.175781 11.398438 -4.421875 11.445312 -4.742188 C 11.496094 -5.058594 11.519531 -5.304688 11.519531 -5.503906 C 11.519531 -5.917969 11.445312 -6.261719 11.296875 -6.558594 C 11.152344 -6.851562 10.980469 -7.097656 10.808594 -7.269531 C 10.609375 -7.492188 10.390625 -7.664062 10.144531 -7.8125 Z M 10.390625 -7.8125 "/></g></g></g><g fill="#a6a6a6" fill-opacity="1"><g transform="translate(149.303334, 254.041169)"><g><path d="M 8.964844 -5.917969 C 8.988281 -5.945312 9.015625 -5.96875 9.039062 -6.019531 C 9.0625 -6.066406 9.089844 -6.089844 9.113281 -6.117188 C 9.113281 -6.089844 9.113281 -6.066406 9.136719 -6.042969 C 9.160156 -6.066406 9.1875 -6.089844 9.210938 -6.117188 C 9.1875 -6.140625 9.160156 -6.164062 9.136719 -6.191406 C 9.113281 -6.214844 9.089844 -6.238281 9.0625 -6.261719 L 9.210938 -6.335938 C 9.210938 -6.3125 9.210938 -6.289062 9.210938 -6.261719 C 9.210938 -6.238281 9.210938 -6.214844 9.210938 -6.191406 C 9.261719 -6.191406 9.285156 -6.214844 9.285156 -6.289062 C 9.285156 -6.3125 9.285156 -6.335938 9.285156 -6.363281 C 9.285156 -6.386719 9.285156 -6.410156 9.285156 -6.433594 C 9.285156 -6.460938 9.285156 -6.460938 9.308594 -6.460938 C 9.332031 -6.460938 9.332031 -6.460938 9.332031 -6.460938 C 9.332031 -6.460938 9.359375 -6.460938 9.382812 -6.460938 C 9.433594 -6.460938 9.503906 -6.484375 9.605469 -6.558594 C 9.703125 -6.632812 9.800781 -6.707031 9.898438 -6.777344 C 9.996094 -6.851562 10.09375 -6.925781 10.195312 -7 C 10.292969 -7.074219 10.367188 -7.125 10.414062 -7.148438 C 10.585938 -7.222656 10.757812 -7.34375 10.929688 -7.492188 C 11.101562 -7.640625 11.273438 -7.8125 11.445312 -8.007812 C 11.617188 -8.203125 11.789062 -8.398438 11.960938 -8.597656 C 12.132812 -8.792969 12.28125 -8.964844 12.429688 -9.113281 C 12.527344 -9.285156 12.625 -9.433594 12.699219 -9.53125 C 12.773438 -9.628906 12.847656 -9.726562 12.894531 -9.800781 C 12.945312 -9.875 12.992188 -9.949219 13.042969 -10.023438 C 13.09375 -10.09375 13.140625 -10.195312 13.191406 -10.316406 C 13.265625 -10.464844 13.386719 -10.660156 13.558594 -10.90625 C 13.730469 -11.152344 13.804688 -11.371094 13.804688 -11.542969 C 13.78125 -11.542969 13.753906 -11.570312 13.753906 -11.644531 C 13.753906 -11.667969 13.78125 -11.714844 13.828125 -11.765625 C 13.878906 -11.816406 13.902344 -11.863281 13.902344 -11.9375 C 13.828125 -12.011719 13.804688 -12.058594 13.804688 -12.085938 C 13.804688 -12.109375 13.804688 -12.132812 13.804688 -12.160156 C 13.804688 -12.183594 13.804688 -12.207031 13.804688 -12.230469 L 13.804688 -12.28125 C 13.828125 -12.28125 13.851562 -12.28125 13.851562 -12.28125 C 13.851562 -12.28125 13.878906 -12.28125 13.902344 -12.28125 C 13.878906 -12.355469 13.851562 -12.429688 13.851562 -12.476562 C 13.851562 -12.527344 13.828125 -12.574219 13.804688 -12.648438 C 13.804688 -12.871094 13.753906 -13.066406 13.679688 -13.238281 C 13.609375 -13.410156 13.507812 -13.558594 13.386719 -13.679688 C 13.265625 -13.804688 13.140625 -13.925781 13.019531 -14.023438 C 12.894531 -14.125 12.773438 -14.222656 12.675781 -14.320312 C 12.722656 -14.367188 12.746094 -14.394531 12.746094 -14.417969 C 12.625 -14.589844 12.429688 -14.738281 12.183594 -14.859375 C 11.9375 -14.984375 11.667969 -15.03125 11.398438 -15.03125 C 11.371094 -15.03125 11.347656 -15.03125 11.324219 -15.03125 C 11.296875 -15.03125 11.273438 -15.03125 11.25 -15.03125 C 11.175781 -15.03125 11.101562 -15.058594 11.054688 -15.128906 C 11.003906 -15.203125 10.90625 -15.230469 10.78125 -15.230469 C 10.757812 -15.230469 10.636719 -15.179688 10.4375 -15.082031 C 10.242188 -14.984375 10.023438 -14.886719 9.800781 -14.8125 C 9.824219 -14.835938 9.800781 -14.8125 9.726562 -14.738281 C 9.652344 -14.664062 9.554688 -14.589844 9.433594 -14.515625 C 9.308594 -14.441406 9.1875 -14.367188 9.0625 -14.296875 C 8.941406 -14.222656 8.84375 -14.195312 8.769531 -14.195312 C 8.746094 -14.195312 8.644531 -14.125 8.5 -13.953125 C 8.351562 -13.78125 8.128906 -13.609375 7.859375 -13.4375 C 7.761719 -13.363281 7.566406 -13.191406 7.269531 -12.917969 C 6.976562 -12.648438 6.632812 -12.304688 6.238281 -11.886719 C 5.847656 -11.46875 5.429688 -10.980469 4.984375 -10.414062 C 4.542969 -9.847656 4.125 -9.234375 3.707031 -8.597656 C 3.585938 -8.425781 3.4375 -8.203125 3.265625 -7.957031 C 3.09375 -7.710938 2.921875 -7.46875 2.777344 -7.222656 C 2.628906 -6.976562 2.480469 -6.730469 2.359375 -6.507812 C 2.234375 -6.289062 2.1875 -6.089844 2.1875 -5.945312 C 2.039062 -5.574219 1.914062 -5.230469 1.816406 -4.9375 C 1.71875 -4.640625 1.621094 -4.371094 1.5 -4.125 C 1.375 -3.882812 1.226562 -3.660156 1.054688 -3.464844 C 0.882812 -3.265625 0.613281 -3.09375 0.269531 -2.921875 L 0.269531 -2.949219 C 0.246094 -2.921875 0.222656 -2.898438 0.222656 -2.875 C 0.222656 -2.847656 0.195312 -2.824219 0.171875 -2.800781 C 0.222656 -2.800781 0.269531 -2.800781 0.320312 -2.800781 C 0.367188 -2.800781 0.417969 -2.800781 0.492188 -2.800781 C 0.417969 -2.726562 0.34375 -2.652344 0.292969 -2.605469 C 0.246094 -2.554688 0.171875 -2.503906 0.0976562 -2.457031 C 0.222656 -2.457031 0.292969 -2.457031 0.320312 -2.433594 C 0.34375 -2.40625 0.394531 -2.40625 0.441406 -2.40625 L 0.957031 -2.480469 L 0.957031 -2.382812 C 0.957031 -2.015625 0.910156 -1.621094 0.8125 -1.203125 C 0.710938 -0.785156 0.636719 -0.394531 0.613281 -0.0234375 C 0.613281 0.121094 0.636719 0.246094 0.710938 0.34375 C 0.785156 0.441406 0.859375 0.539062 0.957031 0.636719 C 1.054688 0.738281 1.15625 0.835938 1.253906 0.910156 C 1.351562 0.984375 1.398438 1.054688 1.425781 1.128906 C 1.546875 1.351562 1.695312 1.570312 1.890625 1.769531 C 2.085938 1.964844 2.308594 2.113281 2.578125 2.234375 C 2.847656 2.359375 3.121094 2.457031 3.390625 2.53125 C 3.660156 2.605469 3.929688 2.628906 4.199219 2.628906 C 4.296875 2.628906 4.398438 2.628906 4.519531 2.628906 C 4.640625 2.628906 4.742188 2.605469 4.8125 2.554688 C 4.960938 2.480469 5.085938 2.40625 5.15625 2.332031 C 5.230469 2.257812 5.304688 2.1875 5.378906 2.113281 C 5.453125 2.039062 5.527344 1.964844 5.601562 1.890625 C 5.675781 1.816406 5.773438 1.769531 5.917969 1.71875 L 5.871094 1.71875 C 5.847656 1.71875 5.917969 1.71875 6.066406 1.695312 C 6.214844 1.671875 6.410156 1.644531 6.632812 1.597656 C 6.851562 1.546875 7.074219 1.5 7.296875 1.425781 C 7.515625 1.351562 7.6875 1.277344 7.8125 1.179688 C 7.835938 1.203125 7.859375 1.203125 7.882812 1.203125 L 7.957031 1.128906 L 7.984375 1.15625 C 8.007812 1.128906 8.15625 1.082031 8.398438 0.984375 C 8.644531 0.882812 8.867188 0.785156 9.089844 0.664062 C 9.0625 0.6875 9.089844 0.6875 9.1875 0.664062 C 9.285156 0.636719 9.382812 0.589844 9.503906 0.515625 C 9.628906 0.441406 9.75 0.367188 9.875 0.269531 C 9.996094 0.171875 10.070312 0.0507812 10.121094 -0.0742188 C 10.144531 -0.121094 10.21875 -0.195312 10.339844 -0.269531 C 10.464844 -0.34375 10.585938 -0.441406 10.710938 -0.539062 C 10.832031 -0.636719 10.953125 -0.761719 11.078125 -0.882812 C 11.199219 -1.007812 11.25 -1.128906 11.25 -1.253906 C 11.25 -1.277344 11.25 -1.300781 11.25 -1.328125 C 11.25 -1.351562 11.25 -1.375 11.25 -1.398438 C 11.226562 -1.375 11.175781 -1.375 11.101562 -1.375 L 11.027344 -1.375 C 10.953125 -1.375 10.90625 -1.351562 10.90625 -1.300781 C 10.90625 -1.253906 10.855469 -1.179688 10.757812 -1.082031 C 10.144531 -0.613281 9.433594 -0.171875 8.621094 0.222656 C 7.8125 0.613281 6.828125 0.882812 5.675781 1.03125 C 5.109375 1.03125 4.742188 0.984375 4.570312 0.882812 C 4.398438 0.785156 4.296875 0.589844 4.296875 0.269531 C 4.296875 0.222656 4.296875 0.171875 4.296875 0.121094 C 4.296875 0.0742188 4.296875 0.0234375 4.296875 -0.0234375 C 4.296875 -0.0507812 4.296875 -0.0976562 4.296875 -0.148438 C 4.296875 -0.195312 4.296875 -0.246094 4.296875 -0.269531 C 4.296875 -0.417969 4.324219 -0.566406 4.398438 -0.710938 C 4.46875 -0.859375 4.542969 -0.984375 4.617188 -1.105469 C 4.59375 -1.082031 4.640625 -1.128906 4.742188 -1.277344 C 4.839844 -1.425781 4.886719 -1.570312 4.886719 -1.742188 C 5.011719 -1.890625 5.109375 -2.039062 5.207031 -2.210938 C 5.28125 -2.332031 5.355469 -2.480469 5.429688 -2.628906 C 5.503906 -2.777344 5.527344 -2.921875 5.527344 -3.046875 L 5.503906 -3.09375 C 5.503906 -3.121094 5.550781 -3.167969 5.648438 -3.242188 C 5.746094 -3.316406 5.796875 -3.390625 5.796875 -3.464844 C 5.796875 -3.488281 5.773438 -3.511719 5.746094 -3.535156 C 5.796875 -3.585938 5.820312 -3.636719 5.820312 -3.660156 L 5.820312 -3.707031 L 5.917969 -3.855469 L 5.917969 -3.882812 C 5.917969 -3.929688 5.96875 -3.980469 6.066406 -4.003906 L 5.992188 -4.078125 C 6.019531 -4.101562 6.042969 -4.125 6.066406 -4.152344 C 6.089844 -4.175781 6.117188 -4.199219 6.140625 -4.226562 C 6.117188 -4.152344 6.089844 -4.078125 6.066406 -4.027344 C 6.042969 -3.980469 6.019531 -3.929688 5.96875 -3.882812 C 5.992188 -3.90625 6.019531 -3.929688 6.042969 -3.953125 L 6.117188 -4.027344 C 6.117188 -3.980469 6.117188 -3.929688 6.117188 -3.90625 C 6.117188 -3.882812 6.117188 -3.855469 6.117188 -3.832031 L 6.214844 -3.980469 C 6.238281 -4.027344 6.261719 -4.078125 6.261719 -4.152344 L 6.261719 -4.175781 C 6.3125 -4.226562 6.363281 -4.273438 6.386719 -4.324219 C 6.410156 -4.371094 6.460938 -4.421875 6.507812 -4.445312 C 6.433594 -4.398438 6.484375 -4.398438 6.65625 -4.46875 C 6.828125 -4.542969 7.023438 -4.640625 7.269531 -4.765625 C 7.515625 -4.886719 7.738281 -5.011719 7.957031 -5.132812 C 8.179688 -5.257812 8.277344 -5.328125 8.277344 -5.355469 C 8.277344 -5.378906 8.277344 -5.378906 8.253906 -5.378906 C 8.253906 -5.402344 8.277344 -5.429688 8.351562 -5.453125 C 8.425781 -5.476562 8.472656 -5.503906 8.5 -5.527344 C 8.472656 -5.527344 8.472656 -5.527344 8.472656 -5.503906 C 8.472656 -5.476562 8.449219 -5.453125 8.425781 -5.429688 C 8.472656 -5.453125 8.5 -5.476562 8.5 -5.503906 L 8.5 -5.625 C 8.5 -5.648438 8.523438 -5.675781 8.546875 -5.675781 C 8.597656 -5.675781 8.621094 -5.648438 8.621094 -5.601562 C 8.644531 -5.601562 8.671875 -5.625 8.695312 -5.699219 Z M 4.8125 -2.234375 C 4.8125 -2.210938 4.8125 -2.136719 4.8125 -2.039062 C 4.8125 -1.941406 4.765625 -1.890625 4.691406 -1.890625 C 4.640625 -1.890625 4.617188 -1.890625 4.59375 -1.914062 C 4.570312 -1.890625 4.570312 -1.941406 4.59375 -2.039062 C 4.617188 -2.136719 4.667969 -2.1875 4.742188 -2.1875 C 4.765625 -2.1875 4.789062 -2.1875 4.8125 -2.160156 C 4.789062 -2.257812 4.765625 -2.332031 4.765625 -2.382812 C 4.789062 -2.40625 4.8125 -2.457031 4.839844 -2.503906 C 4.863281 -2.554688 4.886719 -2.578125 4.914062 -2.578125 C 4.9375 -2.578125 4.960938 -2.578125 4.984375 -2.554688 C 4.9375 -2.53125 4.914062 -2.457031 4.914062 -2.332031 C 4.914062 -2.210938 4.863281 -2.136719 4.789062 -2.136719 Z M 7.246094 -5.699219 C 7.640625 -6.191406 8.082031 -6.804688 8.574219 -7.566406 C 9.0625 -8.328125 9.628906 -9.0625 10.242188 -9.777344 C 10.265625 -9.777344 10.316406 -9.824219 10.390625 -9.921875 C 10.464844 -10.023438 10.5625 -10.144531 10.660156 -10.265625 C 10.757812 -10.390625 10.855469 -10.539062 10.953125 -10.683594 C 11.054688 -10.832031 11.125 -10.953125 11.152344 -11.054688 L 11.125 -11.078125 C 11.152344 -11.101562 11.175781 -11.152344 11.199219 -11.199219 C 11.226562 -11.25 11.25 -11.273438 11.273438 -11.273438 C 11.25 -11.25 11.25 -11.199219 11.25 -11.152344 C 11.273438 -11.152344 11.296875 -11.175781 11.324219 -11.25 C 11.347656 -11.324219 11.371094 -11.371094 11.398438 -11.398438 C 11.371094 -11.46875 11.347656 -11.542969 11.324219 -11.644531 C 11.347656 -11.644531 11.371094 -11.644531 11.398438 -11.644531 C 11.421875 -11.644531 11.445312 -11.644531 11.46875 -11.644531 C 11.46875 -11.617188 11.46875 -11.59375 11.46875 -11.570312 C 11.46875 -11.542969 11.46875 -11.519531 11.46875 -11.496094 L 11.496094 -11.46875 C 11.519531 -11.496094 11.570312 -11.570312 11.644531 -11.667969 C 11.714844 -11.765625 11.789062 -11.863281 11.886719 -11.960938 C 11.988281 -12.058594 12.109375 -12.132812 12.28125 -12.207031 C 12.453125 -12.28125 12.648438 -12.304688 12.871094 -12.304688 C 12.945312 -12.183594 12.992188 -12.058594 13.019531 -11.914062 C 13.042969 -11.765625 13.042969 -11.617188 13.042969 -11.496094 C 13.042969 -11.421875 13.019531 -11.324219 12.992188 -11.199219 C 12.871094 -10.660156 12.699219 -10.21875 12.503906 -9.898438 C 12.304688 -9.578125 12.085938 -9.285156 11.863281 -9.039062 C 11.644531 -8.792969 11.398438 -8.574219 11.152344 -8.375 C 10.90625 -8.179688 10.683594 -7.933594 10.464844 -7.664062 C 10.046875 -7.246094 9.53125 -6.851562 8.890625 -6.484375 C 8.253906 -6.117188 7.6875 -5.773438 7.171875 -5.476562 Z M 4.46875 -1.300781 C 4.347656 -1.128906 4.273438 -0.984375 4.25 -0.859375 C 4.226562 -0.738281 4.152344 -0.613281 4.027344 -0.492188 C 4.003906 -0.515625 3.980469 -0.566406 3.980469 -0.613281 C 3.980469 -0.6875 4.003906 -0.8125 4.078125 -0.984375 C 4.152344 -1.15625 4.199219 -1.253906 4.25 -1.300781 C 4.273438 -1.300781 4.296875 -1.300781 4.324219 -1.300781 C 4.347656 -1.300781 4.371094 -1.300781 4.398438 -1.300781 Z M 5.109375 -3.191406 C 5.15625 -3.144531 5.183594 -3.121094 5.183594 -3.09375 C 5.183594 -3.019531 5.15625 -2.949219 5.085938 -2.898438 C 5.011719 -2.847656 4.984375 -2.777344 4.984375 -2.703125 L 4.984375 -2.675781 C 4.984375 -2.652344 4.9375 -2.605469 4.839844 -2.53125 L 4.8125 -2.554688 L 4.863281 -2.628906 C 4.886719 -2.675781 4.914062 -2.726562 4.960938 -2.800781 C 5.011719 -2.875 5.035156 -2.949219 5.058594 -3.019531 C 5.085938 -3.09375 5.109375 -3.144531 5.109375 -3.167969 C 5.109375 -3.191406 5.109375 -3.191406 5.109375 -3.191406 C 5.109375 -3.191406 5.109375 -3.191406 5.109375 -3.21875 Z M 12.453125 -13.609375 C 12.355469 -13.632812 12.257812 -13.65625 12.183594 -13.65625 C 12.109375 -13.65625 12.058594 -13.679688 12.058594 -13.753906 C 12.058594 -13.804688 12.085938 -13.851562 12.132812 -13.902344 C 12.183594 -13.878906 12.257812 -13.828125 12.332031 -13.753906 C 12.402344 -13.679688 12.453125 -13.632812 12.453125 -13.609375 Z M 4.25 -1.449219 C 4.273438 -1.472656 4.296875 -1.5 4.296875 -1.523438 C 4.296875 -1.546875 4.324219 -1.570312 4.347656 -1.597656 C 4.371094 -1.570312 4.371094 -1.546875 4.371094 -1.523438 C 4.371094 -1.5 4.398438 -1.472656 4.421875 -1.449219 C 4.398438 -1.425781 4.371094 -1.398438 4.347656 -1.375 C 4.324219 -1.398438 4.273438 -1.425781 4.199219 -1.449219 Z M 12.625 -12.304688 L 12.378906 -12.304688 C 12.378906 -12.332031 12.402344 -12.355469 12.453125 -12.355469 C 12.476562 -12.355469 12.503906 -12.355469 12.550781 -12.355469 C 12.601562 -12.355469 12.625 -12.332031 12.625 -12.304688 Z M 12.625 -12.304688 "/></g></g></g><g fill="#a6a6a6" fill-opacity="1"><g transform="translate(168.586341, 254.041169)"><g><path d="M 0.515625 -0.292969 C 0.738281 0.320312 1.007812 0.738281 1.328125 0.957031 C 1.644531 1.179688 2.039062 1.300781 2.53125 1.300781 C 2.652344 1.300781 2.777344 1.277344 2.921875 1.253906 C 3.070312 1.226562 3.167969 1.203125 3.242188 1.203125 L 3.339844 1.203125 C 3.511719 1.179688 3.609375 1.105469 3.636719 0.984375 C 3.808594 0.910156 3.953125 0.835938 4.101562 0.761719 C 4.226562 0.6875 4.324219 0.613281 4.421875 0.539062 C 4.519531 0.464844 4.570312 0.417969 4.570312 0.367188 C 4.570312 0.34375 4.570312 0.320312 4.570312 0.320312 C 4.570312 0.320312 4.570312 0.292969 4.570312 0.269531 C 4.59375 0.292969 4.617188 0.320312 4.617188 0.34375 C 4.617188 0.367188 4.617188 0.394531 4.640625 0.417969 C 4.667969 0.394531 4.667969 0.367188 4.667969 0.34375 C 4.691406 0.320312 4.742188 0.292969 4.8125 0.269531 C 4.886719 0.246094 4.9375 0.222656 4.9375 0.195312 C 4.914062 0.195312 4.914062 0.195312 4.914062 0.171875 L 4.914062 0.121094 C 4.9375 0.148438 4.960938 0.171875 4.984375 0.171875 C 5.035156 0.0976562 5.109375 0.0742188 5.230469 0.0976562 C 5.355469 0.121094 5.453125 0.0742188 5.527344 -0.0507812 C 5.503906 -0.0507812 5.476562 -0.0507812 5.476562 -0.0507812 C 5.476562 -0.0507812 5.453125 -0.0507812 5.429688 -0.0507812 C 5.453125 -0.0742188 5.476562 -0.0976562 5.503906 -0.121094 C 5.527344 -0.148438 5.550781 -0.148438 5.574219 -0.148438 L 5.601562 -0.148438 C 5.625 -0.148438 5.648438 -0.148438 5.675781 -0.171875 C 5.699219 -0.195312 5.722656 -0.195312 5.746094 -0.195312 C 5.746094 -0.171875 5.746094 -0.171875 5.773438 -0.171875 C 5.796875 -0.148438 5.820312 -0.148438 5.847656 -0.148438 L 6.261719 -0.566406 L 6.261719 -0.589844 L 6.214844 -0.636719 C 6.386719 -0.636719 6.582031 -0.710938 6.804688 -0.859375 C 7.023438 -1.007812 7.148438 -1.105469 7.195312 -1.15625 C 7.171875 -1.15625 7.171875 -1.15625 7.171875 -1.15625 C 7.171875 -1.15625 7.171875 -1.15625 7.148438 -1.15625 C 7.171875 -1.179688 7.195312 -1.203125 7.222656 -1.226562 C 7.222656 -1.203125 7.222656 -1.179688 7.222656 -1.179688 C 7.222656 -1.179688 7.222656 -1.15625 7.222656 -1.128906 C 7.246094 -1.105469 7.246094 -1.105469 7.246094 -1.128906 C 7.246094 -1.15625 7.246094 -1.179688 7.246094 -1.203125 C 7.222656 -1.179688 7.246094 -1.15625 7.320312 -1.15625 C 7.394531 -1.15625 7.441406 -1.15625 7.46875 -1.15625 C 7.492188 -1.15625 7.539062 -1.203125 7.613281 -1.277344 C 7.640625 -1.300781 7.785156 -1.449219 8.054688 -1.71875 C 8.328125 -1.988281 8.644531 -2.332031 9.015625 -2.777344 C 9.015625 -2.75 9.015625 -2.726562 9.015625 -2.726562 C 9.015625 -2.726562 9.015625 -2.703125 9.015625 -2.675781 C 9.015625 -2.605469 8.988281 -2.554688 8.941406 -2.503906 C 8.890625 -2.457031 8.867188 -2.40625 8.867188 -2.382812 C 8.890625 -2.382812 8.941406 -2.433594 9.015625 -2.53125 C 9.089844 -2.628906 9.160156 -2.75 9.234375 -2.898438 C 9.308594 -3.046875 9.382812 -3.167969 9.457031 -3.292969 C 9.53125 -3.414062 9.578125 -3.511719 9.605469 -3.5625 C 9.628906 -3.5625 9.675781 -3.5625 9.726562 -3.535156 C 9.703125 -3.511719 9.675781 -3.488281 9.675781 -3.464844 C 9.675781 -3.4375 9.652344 -3.414062 9.628906 -3.390625 C 9.703125 -3.4375 9.777344 -3.535156 9.875 -3.660156 C 9.847656 -3.609375 9.921875 -3.734375 10.121094 -4.027344 C 10.316406 -4.324219 10.539062 -4.691406 10.78125 -5.132812 C 11.027344 -5.574219 11.273438 -6.042969 11.496094 -6.558594 C 11.714844 -7.074219 11.863281 -7.539062 11.9375 -7.957031 C 11.960938 -8.15625 12.035156 -8.375 12.132812 -8.644531 C 12.230469 -8.917969 12.28125 -9.136719 12.28125 -9.332031 L 12.28125 -10.046875 C 12.28125 -10.144531 12.28125 -10.242188 12.257812 -10.316406 C 12.183594 -10.464844 12.132812 -10.585938 12.109375 -10.660156 C 12.085938 -10.734375 12.035156 -10.832031 11.988281 -10.953125 C 11.9375 -11.078125 11.886719 -11.226562 11.816406 -11.398438 C 11.742188 -11.570312 11.617188 -11.816406 11.445312 -12.160156 C 11.296875 -12.503906 11.125 -12.773438 10.929688 -12.96875 C 10.734375 -13.164062 10.511719 -13.3125 10.265625 -13.410156 C 10.023438 -13.507812 9.777344 -13.582031 9.53125 -13.609375 C 9.285156 -13.632812 9.0625 -13.65625 8.84375 -13.679688 C 8.84375 -13.65625 8.84375 -13.65625 8.867188 -13.65625 C 8.84375 -13.632812 8.816406 -13.632812 8.792969 -13.632812 C 8.816406 -13.632812 8.84375 -13.632812 8.867188 -13.609375 C 8.746094 -13.582031 8.621094 -13.558594 8.5 -13.535156 C 8.375 -13.507812 8.253906 -13.484375 8.128906 -13.460938 C 8.082031 -13.460938 8.054688 -13.460938 8.054688 -13.484375 C 7.984375 -13.65625 7.859375 -13.753906 7.664062 -13.804688 C 7.46875 -13.851562 7.320312 -13.976562 7.195312 -14.171875 C 7.171875 -14.148438 7.171875 -14.125 7.171875 -14.097656 C 7.171875 -14.074219 7.171875 -14.074219 7.148438 -14.074219 C 7.023438 -14.097656 6.902344 -14.125 6.804688 -14.171875 C 6.707031 -14.222656 6.605469 -14.246094 6.507812 -14.246094 C 6.484375 -14.246094 6.410156 -14.195312 6.3125 -14.097656 C 6.214844 -14 6.089844 -13.878906 5.945312 -13.730469 C 5.796875 -13.582031 5.648438 -13.410156 5.503906 -13.214844 C 5.355469 -13.019531 5.207031 -12.847656 5.085938 -12.699219 C 4.421875 -11.839844 3.832031 -11.027344 3.292969 -10.265625 C 2.75 -9.503906 2.257812 -8.644531 1.816406 -7.710938 C 1.695312 -7.441406 1.570312 -7.125 1.449219 -6.753906 C 1.328125 -6.386719 1.203125 -5.992188 1.105469 -5.574219 C 1.007812 -5.15625 0.910156 -4.742188 0.8125 -4.296875 C 0.710938 -3.855469 0.636719 -3.4375 0.566406 -3.046875 C 0.441406 -2.652344 0.367188 -2.257812 0.367188 -1.84375 C 0.367188 -1.425781 0.320312 -1.007812 0.246094 -0.589844 L 0.246094 -0.222656 C 0.246094 -0.0742188 0.292969 0 0.367188 0 Z M 8.253906 -12.648438 C 8.226562 -12.722656 8.203125 -12.796875 8.15625 -12.871094 C 8.105469 -12.945312 8.082031 -13.019531 8.082031 -13.09375 C 8.082031 -13.117188 8.128906 -13.140625 8.226562 -13.140625 C 8.328125 -13.140625 8.398438 -13.140625 8.472656 -13.164062 C 8.574219 -13.164062 8.71875 -13.140625 8.890625 -13.09375 C 9.0625 -13.042969 9.234375 -12.96875 9.40625 -12.871094 C 9.578125 -12.773438 9.726562 -12.625 9.847656 -12.429688 C 9.972656 -12.230469 10.023438 -11.960938 10.023438 -11.644531 C 10.023438 -11.078125 9.898438 -10.511719 9.652344 -9.949219 C 9.40625 -9.382812 9.136719 -8.71875 8.84375 -7.984375 C 8.84375 -8.007812 8.816406 -7.957031 8.792969 -7.835938 C 8.769531 -7.710938 8.71875 -7.566406 8.644531 -7.394531 C 8.574219 -7.222656 8.472656 -7.050781 8.375 -6.878906 C 8.277344 -6.707031 8.179688 -6.558594 8.082031 -6.460938 C 7.835938 -5.96875 7.566406 -5.476562 7.296875 -4.984375 C 7.023438 -4.496094 6.777344 -4.054688 6.558594 -3.683594 C 6.484375 -3.585938 6.386719 -3.414062 6.261719 -3.167969 C 6.140625 -2.921875 5.992188 -2.675781 5.847656 -2.40625 C 5.699219 -2.136719 5.527344 -1.867188 5.355469 -1.597656 C 5.183594 -1.328125 5.011719 -1.105469 4.839844 -0.933594 C 4.714844 -0.738281 4.59375 -0.566406 4.496094 -0.417969 C 4.398438 -0.269531 4.273438 -0.148438 4.152344 -0.0234375 C 4.027344 0.0976562 3.90625 0.222656 3.757812 0.320312 C 3.609375 0.417969 3.4375 0.539062 3.242188 0.664062 C 3.21875 0.636719 3.191406 0.613281 3.191406 0.566406 C 3.191406 0.515625 3.167969 0.492188 3.144531 0.464844 C 3.167969 0.441406 3.191406 0.417969 3.21875 0.367188 C 3.242188 0.320312 3.242188 0.292969 3.242188 0.269531 L 3.242188 0.222656 C 3.242188 0.148438 3.242188 0.0976562 3.265625 0.0507812 C 3.292969 0 3.316406 -0.0507812 3.339844 -0.121094 C 3.390625 -0.441406 3.4375 -0.6875 3.488281 -0.859375 C 3.535156 -1.03125 3.5625 -1.179688 3.585938 -1.300781 C 3.609375 -1.425781 3.660156 -1.546875 3.707031 -1.695312 C 3.757812 -1.84375 3.832031 -2.039062 3.929688 -2.308594 C 4.003906 -2.628906 4.152344 -2.949219 4.347656 -3.292969 C 4.542969 -3.636719 4.667969 -3.980469 4.742188 -4.296875 C 4.914062 -4.667969 5.058594 -5.085938 5.207031 -5.574219 C 5.355469 -6.066406 5.550781 -6.507812 5.796875 -6.925781 C 5.820312 -6.976562 5.917969 -7.148438 6.089844 -7.441406 C 6.261719 -7.738281 6.363281 -8.105469 6.410156 -8.546875 C 6.386719 -8.523438 6.386719 -8.523438 6.433594 -8.574219 C 6.484375 -8.621094 6.535156 -8.671875 6.582031 -8.746094 C 6.632812 -8.816406 6.679688 -8.917969 6.730469 -9.015625 C 6.777344 -9.113281 6.804688 -9.210938 6.804688 -9.308594 C 6.804688 -9.332031 6.777344 -9.359375 6.753906 -9.359375 C 6.730469 -9.359375 6.707031 -9.382812 6.707031 -9.40625 C 6.707031 -9.53125 6.804688 -9.675781 6.976562 -9.847656 C 7.148438 -10.023438 7.269531 -10.21875 7.34375 -10.4375 C 7.417969 -10.488281 7.515625 -10.5625 7.640625 -10.660156 C 7.761719 -10.757812 7.882812 -10.855469 8.007812 -10.980469 C 8.128906 -11.101562 8.226562 -11.226562 8.300781 -11.371094 C 8.375 -11.519531 8.425781 -11.667969 8.425781 -11.789062 C 8.449219 -11.714844 8.449219 -11.714844 8.449219 -11.789062 C 8.449219 -11.863281 8.449219 -11.960938 8.425781 -12.085938 C 8.398438 -12.207031 8.375 -12.304688 8.328125 -12.402344 C 8.277344 -12.503906 8.226562 -12.550781 8.179688 -12.550781 Z M 8.253906 -12.648438 "/></g></g></g></svg>